<?xml version="1.0" encoding="iso-8859-1"?>
<!-- Generator: Adobe Illustrator 25.2.3, SVG Export Plug-In . SVG Version: 6.00 Build 0)  -->
<svg version="1.1" id="Layer_1" xmlns="http://www.w3.org/2000/svg" xmlns:xlink="http://www.w3.org/1999/xlink" x="0px" y="0px"
	 viewBox="0 0 500 100" style="enable-background:new 0 0 500 100;" xml:space="preserve">
<g>
	<path d="M149.2313,47.4242c9.5881-0.2137,12.9965,3.1949,12.9965,3.1949l4.4805-13.4204
		c-7.6684-5.7521-30.8904-6.6034-41.3297,2.9811c-8.9609,8.3094-8.9609,21.7125-8.9609,25.3518
		c-0.2135,3.4086-0.2135,17.0426,8.9609,25.352c10.4392,9.5879,33.6579,8.7333,41.3297,2.9811l-4.4805-13.4204
		c0,0.2137-3.4084,3.6223-12.9965,3.4086v0.0137c0,0-14.2717,0.8513-14.2717-17.6802v-1.0821
		C134.9596,46.783,149.2313,47.4242,149.2313,47.4242z"/>
	<path d="M91.5001,34.6587v8.3092c-4.2502-6.0773-11.122-9.7894-18.5349-10.0118c-14.2717,0-25.7759,12.5691-25.7759,33.0203
		s11.5042,33.0203,25.7759,33.0203c7.5267-0.2089,14.4976-4.0108,18.7486-10.2255l-0.2137,8.0957h17.6802V34.6551H91.5001V34.6587z
		 M90.4351,60.2209V72.149c0.1119,6.5887-5.1383,12.0205-11.727,12.1326c-6.5887,0.1119-12.0207-5.1385-12.1326-11.7272
		c-0.0023-0.135-0.0023-0.2703,0-0.4054V60.2209c-0.1119-6.5887,5.1383-12.0207,11.727-12.1326
		c6.5887-0.1119,12.0207,5.1383,12.1326,11.727C90.4374,59.9506,90.4374,60.0856,90.4351,60.2209z"/>
	<path d="M31.2081,22.2998c0-7.241,7.6718-6.1726,7.6718-6.1726h8.3094V1.0006H34.4066c-5.774-0.041-11.3692,1.9998-15.7605,5.7488
		c-3.9753,3.4275-5.9076,8.6592-5.1145,13.8478v13.8339H0.535v16.1983h12.3553v46.2339h18.3178V50.8361h14.0615l1.9161-16.4051
		H31.2081V22.2998z"/>
	<path d="M272.5794,32.9525c-7.5267,0.2089-14.4978,4.0108-18.7486,10.2257l0.2135-41.116l-18.5349,2.1298v92.8815l18.5349,0.2135
		l0.0002,0.0036v-8.3094c4.2502,6.0775,11.122,9.7894,18.5349,10.012c14.2717,0,25.7759-12.5693,25.7759-33.0203
		C298.3553,45.5218,286.851,32.9525,272.5794,32.9525z M278.9689,59.7934v11.9315c0.1123,6.5887-5.1381,12.0209-11.7266,12.133
		c-6.5887,0.1121-12.0209-5.1381-12.133-11.7268c-0.0023-0.1353-0.0023-0.2707,0-0.4062V59.7934
		c-0.1121-6.5887,5.1381-12.0209,11.7268-12.133c6.5885-0.1121,12.0207,5.1381,12.1328,11.7268
		C278.9712,59.5227,278.9712,59.658,278.9689,59.7934z"/>
	<path d="M199.725,33.3766c-35.574-0.2137-30.463,35.1537-30.463,35.1537c0.8513,21.516,10.6529,27.6954,27.6956,29.8254
		c10.1647,1.2848,20.487-0.2657,29.8254-4.4803l-3.8358-12.5693c-7.9316,2.4189-16.2107,3.4986-24.4974,3.1949
		c-10.8631-0.8513-10.0118-12.1418-10.0118-12.1418h39.41l-0.0036,0.2171C227.8445,72.5762,235.2992,33.5903,199.725,33.3766z
		 M211.0156,60.0071h-23.0083c0,0-0.8513-13.8478,11.504-13.8478C211.8669,46.1593,211.0156,60.0071,211.0156,60.0071z"/>
	<path d="M403.599,33.8141c-23.2222,0-30.8904,14.0615-30.8904,32.593C372.7086,86.2208,382.7206,99,403.599,99
		c17.0427,0,30.8905-11.504,30.8905-32.5928C434.4895,48.2995,425.5286,33.8141,403.599,33.8141z M415.5305,71.7249
		c-0.2211,6.6121-5.5298,11.9207-12.1416,12.1418c-6.6466-0.1407-12.0011-5.4951-12.1418-12.1418V59.7934
		c0.2213-6.6118,5.5298-11.9205,12.1418-12.1418c6.6465,0.1407,12.0009,5.4953,12.1416,12.1418V71.7249z"/>
	<polygon points="479.2277,65.7593 498.614,34.4414 478.8003,34.4414 459.8449,62.5611 459.8449,1.6348 441.31,3.5511 
		441.31,97.0736 459.8449,97.0736 459.8449,65.3318 480.2961,97.0736 499.465,97.0769 	"/>
	<path d="M335.2147,33.8141v0.0002c-23.222,0-30.8902,14.0613-30.8902,32.5928C304.3245,86.2208,314.3363,99,335.2147,99
		c17.0427,0,30.8904-11.504,30.8904-32.5928C366.1052,48.2995,357.1445,33.8141,335.2147,33.8141z M347.1464,71.7249
		c-0.2213,6.6121-5.53,11.9207-12.1418,12.1418c-6.6465-0.1407-12.0011-5.4951-12.1418-12.1418V59.7934
		c0.2213-6.6118,5.53-11.9205,12.1418-12.1418c6.6465,0.1407,12.0011,5.4953,12.1418,12.1418V71.7249z"/>
</g>
</svg>
