<?xml version="1.0" encoding="iso-8859-1"?>
<!-- Generator: Adobe Illustrator 25.2.3, SVG Export Plug-In . SVG Version: 6.00 Build 0)  -->
<svg version="1.1" id="Layer_1" xmlns="http://www.w3.org/2000/svg" xmlns:xlink="http://www.w3.org/1999/xlink" x="0px" y="0px"
	 viewBox="0 0 218 100" style="enable-background:new 0 0 218 100;" xml:space="preserve">
<g id="Group_98" transform="translate(-12297.708 -1587.091)">
	<path id="Path_582" d="M12452.3789,1628.7296c-1.3721,2.1975-1.9502,9.1152-1.4746,13.7075
		c0.0791,1.2172,0.3633,2.4122,0.8408,3.5345c0.4658,0.988,1.4355,1.6414,2.5264,1.7018c0.6738,0.0348,1.0938-0.0804,13.7656-4.155
		c0,0,5.6309-1.7965,5.6553-1.8091c1.457-0.4326,2.4521-1.7776,2.4404-3.2979c0.1592-1.5944-0.7412-3.1058-2.2197-3.724
		c0,0-3.9717-1.6182-3.9795-1.6182c-13.6182-5.6168-14.2305-5.8409-14.915-5.8409
		C12453.9287,1627.2021,12452.9131,1627.7795,12452.3789,1628.7296 M12482.8467,1670.5765
		c0.2207-0.6393,0.248-1.0781,0.2852-14.3894c0,0,0.0303-5.8821,0.0352-5.9388c0.04-1.5166-0.9238-2.8782-2.3682-3.3436
		c-1.4619-0.6368-3.168-0.2537-4.2178,0.9471c0,0-2.7803,3.2979-2.7881,3.2979c-9.5381,11.2085-9.9453,11.723-10.1709,12.3877
		c-0.1455,0.3899-0.2002,0.8079-0.1582,1.2219c0.0801,0.6427,0.3486,1.2472,0.7734,1.7365c2.21,2.6284,12.8203,6.5309,16.21,5.9515
		c1.0801-0.1349,2.001-0.8512,2.3965-1.866 M12504.3633,1665.948c3.1982-1.2756,10.1748-10.1523,10.666-13.567
		c0.21-1.0702-0.1807-2.1699-1.0205-2.8668c-0.5361-0.4042-0.9473-0.5604-13.6094-4.717c0,0-5.5547-1.8359-5.6279-1.8706
		c-1.4336-0.4956-3.0225,0.0059-3.9121,1.2345c-1.0723,1.2013-1.2246,2.9653-0.375,4.3334l2.2354,3.6404
		c7.5156,12.2061,8.0918,13.0712,8.6318,13.4943c0.8672,0.658,2.0273,0.7797,3.0117,0.3158 M12497.8125,1634.5154
		c14.3926-3.4872,14.9492-3.6703,15.5166-4.0428c0.8887-0.624,1.3623-1.686,1.2324-2.7643c0.0039-0.0404,0.0039-0.0812,0-0.1216
		c-0.3691-3.5345-6.5605-12.7255-9.6104-14.2189c-0.9648-0.5271-2.1406-0.4822-3.0615,0.1168
		c-0.5566,0.3615-0.9639,0.9109-8.6709,11.45c0,0-3.4736,4.736-3.5225,4.7865c-0.9209,1.2019-0.9346,2.868-0.0352,4.0856
		c0.7979,1.3694,2.3916,2.0634,3.9375,1.7144c0,0-0.0566,0.1027-0.0723,0.1216c0.709-0.2668,1.9766-0.5778,4.2822-1.1272
		 M12483.3623,1622.6313c-0.2471-5.7053-1.9648-31.0995-2.165-32.2788c-0.3145-1.0875-1.209-1.9087-2.3193-2.1279
		c-3.6748-0.9093-17.7178,3.0231-20.3193,5.7084c-0.7871,0.7412-1.127,1.842-0.8945,2.8984
		c0.4121,0.8414,17.8086,28.2152,17.8086,28.2152c2.5703,4.1692,4.668,3.522,5.3584,3.3057
		c0.6895-0.2162,2.7666-0.8572,2.5254-5.7194"/>
	<path id="Path_583" d="M12305.1562,1682.8318c1.8125,1.6797,5.248,2.1548,9.4199,1.3055c3.9121-0.7736,6.3369-2.5259,8.6699-9.9456
		l11.625-36.5253c0.6191-1.5741,0.5713-3.332-0.1318-4.8701c-0.6084-1.0448-1.6289-1.7847-2.8105-2.0381
		c-2.0713-0.5668-4.6572-0.5099-6.2861,5.0516l-6.0996,20.731c0,0-12.4238-23.4746-12.4326-23.4746
		c-1.1045-1.8721-3.4316-2.6276-5.4258-1.7618c-3.0527,1.1604-4.0693,3.9072-2.8525,7.4434c0,0,15.1143,30.7554,15.1553,30.839
		c0.1631,0.4164,0.2998,0.8423,0.4102,1.2756c0,0,0.1377,0.8351,0.1377,0.865c0.0176,1.061-0.3906,2.0848-1.1348,2.8417
		c-0.7637,0.6836-1.7734,1.0256-2.7959,0.9471c0,0-2.3574-0.0537-2.5352-0.0537c-2.166,0.0464-3.9619,1.6907-4.1992,3.8441
		c-0.1943,1.3168,0.2881,2.6427,1.2832,3.5266 M12364.7061,1648.2008h-16.1826c-0.4385-0.3157-0.6504-0.8572-0.3232-2.4706
		c0.2002-0.95,0.5645-1.8579,1.0752-2.6837c0.208-0.3157,0.4258-0.6472,0.6309-0.974c1.1611-1.4612,2.7891-2.4789,4.6113-2.8827
		c5.6836-1.3892,9.6572,1.4998,10.3008,6.4315c0.3154,2.1516,0.1055,2.5747-0.1133,2.5747L12364.7061,1648.2008z
		 M12374.6523,1645.3829c-0.5234-5.2775-2.5596-9.3977-5.8984-11.922c-3.5566-2.6995-8.5908-3.5598-14.5498-2.4943
		c-7.4707,1.2944-11.957,6.6304-12.9854,15.4597c-1.2627,10.5518,0.4736,18.5018,5.0381,22.9978
		c3.4414,3.4004,8.5342,4.7518,14.7256,3.915c8.8291-1.2407,12.7998-6.0873,12.7998-9.1561
		c0.1484-2.0847-1.3066-3.9431-3.3662-4.2987c-1.1455-0.2289-2.1133,0-4.2539,1.9149c-2.5879,2.5469-6.2627,3.6562-9.8271,2.9663
		c-2.3672-0.5703-4.2969-2.2777-5.1514-4.5576c0,0-0.3809-1.5076-0.3584-1.3402c-0.2588-1.3593-0.376-2.7074,0.4609-3.2552
		l0.2246-0.1578h19.3984c1.79,0,2.6963-0.2321,3.2168-0.7893C12375.1934,1653.4814,12375.1084,1650.1016,12374.6523,1645.3829
		 M12392.2354,1617.4723c-1.5762-0.6187-3.3525-0.4523-4.7871,0.4484c-1.4619,0.8651-2.0713,2.1818-2.0713,4.5624v46.2545
		c0,0,0.2559,1.6528,0.2832,1.7239c0.3564,1.1963,1.2227,2.1743,2.3682,2.6726c1.3311,0.6108,2.8643,0.5969,4.1846-0.0378
		c1.7334-0.811,2.7979-2.5979,2.6836-4.5087v-46.3413c0,0-0.2939-2.2385-0.2939-2.2795
		C12394.251,1618.8085,12393.373,1617.8842,12392.2354,1617.4723 M12428.8359,1664.4484c-6.4043,0-7.4199-5.6832-7.626-9.9756
		c-0.0117-0.011-0.084-2.5132-0.084-2.5132s0.0723-1.858,0.0723-1.9307c0.415-7.4197,1.9502-10.3528,5.8682-11.1675
		c2.0781-0.7019,4.3672-0.3668,6.1562,0.9015c2.2656,1.825,3.2637,5.6831,3.1719,12.1288
		c-0.0645,7.5428-1.3779,12.5582-7.5508,12.5582L12428.8359,1664.4484z M12429.3096,1630.4915
		c-3.9766-0.9301-8.1602-0.1111-11.4922,2.2496c0,0-0.3965,0.3157-0.5479,0.412l-0.3164,0.1578l-0.9658,0.4342l-0.2744-1.0846
		l-0.2324-0.3835l-0.0801-0.2432l-0.0273-0.0726c0,0-0.2354-0.3157-0.2695-0.3662c-1.5518-1.8484-4.2451-2.2345-6.2529-0.8967
		c-1.2158,0.6899-1.9121,1.6608-1.9121,4.5576v45.3973c0,2.4863,0.7812,4.0319,2.4863,4.848
		c1.3818,0.7163,3.0107,0.7833,4.4473,0.1831c1.127-0.4553,1.9941-1.3867,2.3682-2.5432l0.2852-1.9448v-7.8571l-0.083-1.2628
		l0.0342-0.3741l0.0488-0.1785l0.4736-1.4966l1.4209,0.9473c0.1807,0.1179,0.3516,0.2505,0.5098,0.3962l0.4268,0.281l0.4941,0.2904
		l0.4561,0.2211c4.1982,1.7823,8.9736,1.5876,13.0127-0.5304c5.1641-2.6948,7.7148-7.4781,8.3037-15.5087
		c1.2334-16.0502-2.459-23.7194-12.3135-25.6343 M12449.209,1668.0002h0.5283c0.4297,0,0.834-0.0237,0.834-0.5067
		c0-0.4341-0.3701-0.4736-0.7012-0.4736h-0.6631L12449.209,1668.0002z M12448.7744,1666.6252h1.1348
		c0.7441,0,1.0898,0.27,1.0898,0.8872c0.0273,0.4351-0.3037,0.8099-0.7383,0.8374c-0.0273,0.0017-0.0547,0.002-0.0811,0.0009
		l0.8945,1.3672h-0.4736l-0.8457-1.3292h-0.5527v1.3292h-0.4336v-3.0911L12448.7744,1666.6252z M12449.7773,1670.433
		c1.2402-0.0109,2.2373-1.0255,2.2266-2.2661c-0.0117-1.2406-1.0264-2.2374-2.2666-2.2266
		c-1.2402,0.011-2.2373,1.0255-2.2266,2.2661c0.0049,0.5887,0.2412,1.1519,0.6572,1.5682
		C12448.5947,1670.2008,12449.1738,1670.438,12449.7773,1670.433z M12449.7773,1665.4823c1.4736,0.0122,2.6592,1.2173,2.6465,2.6917
		c-0.0117,1.4742-1.2168,2.6594-2.6914,2.6472c-1.46-0.0121-2.6396-1.1951-2.6475-2.6552
		c-0.0098-1.4717,1.1738-2.6732,2.6455-2.6837C12449.7461,1665.4822,12449.7617,1665.4822,12449.7773,1665.4823"/>
</g>
</svg>
