<?xml version="1.0" encoding="iso-8859-1"?>
<!-- Generator: Adobe Illustrator 25.2.3, SVG Export Plug-In . SVG Version: 6.00 Build 0)  -->
<svg version="1.1" id="Layer_1" xmlns="http://www.w3.org/2000/svg" xmlns:xlink="http://www.w3.org/1999/xlink" x="0px" y="0px"
	 viewBox="0 0 32 32" fill="#F0ECDF" style="enable-background:new 0 0 32 32;" xml:space="preserve">
<path d="M16.0294,0c-8.8365,0-16,7.1635-16,16s7.1635,16,16,16s16-7.1635,16-16S24.866,0,16.0294,0z M23.7732,15.1952
	l-6.5896,6.5892c-0.3185,0.3189-0.7366,0.4783-1.1544,0.4783s-0.8358-0.1594-1.1543-0.4783l-6.5893-6.5892
	c-0.6378-0.6375-0.6378-1.6713,0-2.3087c0.6371-0.6378,1.6716-0.6378,2.3087,0l5.4349,5.4346l5.4353-5.4346
	c0.6378-0.6378,1.6709-0.6378,2.3087,0C24.4109,13.5239,24.4109,14.5577,23.7732,15.1952z"/>
</svg>
