<?xml version="1.0" encoding="iso-8859-1"?>
<!-- Generator: Adobe Illustrator 25.2.3, SVG Export Plug-In . SVG Version: 6.00 Build 0)  -->
<svg version="1.1" id="Layer_1" fill="#034574" xmlns="http://www.w3.org/2000/svg" xmlns:xlink="http://www.w3.org/1999/xlink" x="0px" y="0px"
	 viewBox="0 0 32 32" style="enable-background:new 0 0 32 32;" xml:space="preserve">
<path d="M16,0C7.1635,0,0,7.1635,0,16c0,7.7974,5.5804,14.2839,12.9636,15.7036V21.6819H9.652
	c-0.2859,0-0.5178-0.2319-0.5178-0.5179v-4.1752c0-0.286,0.2319-0.5179,0.5178-0.5179h3.3116v-2.8818
	c0-3.7978,2.3914-6.2507,6.0912-6.2507l3.2933,0.005c0.2859,0,0.5178,0.2318,0.5178,0.5178v3.8785
	c0,0.286-0.2319,0.5178-0.5178,0.5178h-2.2186c-1.5294,0-1.8095,0.596-1.8095,1.7705v2.4429h3.8735
	c0.2859,0,0.5178,0.2319,0.5178,0.5179v4.1752c0,0.286-0.2319,0.5179-0.5178,0.5179h-3.8718v10.1308
	C26.0548,30.6856,32,24.0459,32,16C32,7.1635,24.8365,0,16,0z"/>
</svg>
