<?xml version="1.0" encoding="iso-8859-1"?>
<!-- Generator: Adobe Illustrator 25.2.3, SVG Export Plug-In . SVG Version: 6.00 Build 0)  -->
<svg version="1.1" id="Layer_1" xmlns="http://www.w3.org/2000/svg" xmlns:xlink="http://www.w3.org/1999/xlink" x="0px" y="0px"
	 viewBox="0 0 32 32" fill="#F0ECDF" style="enable-background:new 0 0 32 32;" xml:space="preserve">
<path id="Subtraction_1" d="M15.9994,32c-1.791,0-5.3231-0.9415-8.8475-7.2433c-2.1565-3.7865-3.4107-8.0193-3.6651-12.3693
	C3.5566,5.4765,9.2156-0.0692,16.1265,0.0007c6.8123,0.0689,12.3179,5.5745,12.3868,12.3868
	c-0.2535,4.3499-1.5069,8.5827-3.6626,12.3693C21.3224,31.0585,17.7903,32,15.9994,32z M15.9994,6.6153
	c-3.1883,0.0367-5.7432,2.6512-5.7065,5.8395c0.0367,3.1883,2.6512,5.7432,5.8395,5.7065c3.1622-0.0364,5.7066-2.6102,5.7069-5.7726
	C21.8174,9.1832,19.2049,6.6004,15.9994,6.6153z"/>
</svg>
