<?xml version="1.0" encoding="iso-8859-1"?>
<!-- Generator: Adobe Illustrator 25.2.3, SVG Export Plug-In . SVG Version: 6.00 Build 0)  -->
<svg version="1.1" id="Layer_1" fill="#034574" xmlns="http://www.w3.org/2000/svg" xmlns:xlink="http://www.w3.org/1999/xlink" x="0px" y="0px"
	 viewBox="0 0 32 32" style="enable-background:new 0 0 32 32;" xml:space="preserve">
<g>
	<path d="M16,0C7.1635,0,0,7.1634,0,16c0,8.8365,7.1635,16,16,16s16-7.1635,16-16C32,7.1634,24.8365,0,16,0z M21.3702,22.3113
		c-2.2753,4.0821-4.5546,4.6909-5.7107,4.6909s-3.4347-0.6097-5.7091-4.6909c-1.3918-2.4534-2.2009-5.1939-2.3647-8.0098
		c0.0008-4.4595,3.6165-8.0741,8.076-8.0733c4.4584,0.0008,8.0726,3.6148,8.0733,8.0733
		C23.5712,17.1174,22.7621,19.858,21.3702,22.3113z"/>
	<path d="M15.6595,10.5633c-2.0646,0.0163-3.725,1.7032-3.7086,3.7677c0.0163,2.0646,1.7032,3.7249,3.7677,3.7086
		c2.0529-0.0162,3.7087-1.685,3.7087-3.738C19.4164,12.2299,17.7311,10.5578,15.6595,10.5633z"/>
</g>
</svg>
