<?xml version="1.0" encoding="iso-8859-1"?>
<!-- Generator: Adobe Illustrator 25.2.3, SVG Export Plug-In . SVG Version: 6.00 Build 0)  -->
<svg version="1.1" id="Layer_1" fill="#034574" xmlns="http://www.w3.org/2000/svg" xmlns:xlink="http://www.w3.org/1999/xlink" x="0px" y="0px"
	 viewBox="0 0 32 32" style="enable-background:new 0 0 32 32;" xml:space="preserve">
<path d="M16,0C7.1635,0,0,7.1635,0,16s7.1635,16,16,16s16-7.1635,16-16S24.8365,0,16,0z M8.9948,9.0985h14.0106
	c1.0322,0,1.8758,0.771,2.0087,1.7668l-8.1828,8.1828c-0.4585,0.459-1.2051,0.459-1.6626,0L6.986,10.8654
	C7.1189,9.8694,7.9625,9.0985,8.9948,9.0985z M25.0413,20.8655c0,1.1245-0.9115,2.0359-2.0359,2.0359H8.9948
	c-1.1244,0-2.0359-0.9115-2.0359-2.0359v-7.8946l7.5029,7.5029c0.4106,0.4111,0.957,0.6367,1.5386,0.6367
	c0.5811,0,1.1274-0.2256,1.5381-0.6367l7.5029-7.5029v7.8946H25.0413z"/>
</svg>
