<?xml version="1.0" encoding="iso-8859-1"?>
<!-- Generator: Adobe Illustrator 25.2.3, SVG Export Plug-In . SVG Version: 6.00 Build 0)  -->
<svg version="1.1" id="Layer_1"  xmlns="http://www.w3.org/2000/svg" xmlns:xlink="http://www.w3.org/1999/xlink" x="0px" y="0px"
	 viewBox="0 0 250 71" fill="#F0ECDF" style="enable-background:new 0 0 250 71;" xml:space="preserve">
<path d="M30.2851,35.2759c-0.2659,0.1723-0.6026,0.2749-1.0085,0.3058c-0.5946,0-1.0483-0.25-1.3606-0.751
	c-0.3133-0.5-0.6101-1.3765-0.8915-2.6276l-1.0792-4.8328c-0.4069-1.9383-1.2904-3.3935-2.651-4.3627
	c-1.3569-0.9665-3.4535-1.576-6.2878-1.8273c1.2326-0.1361,2.3422-0.3441,3.3087-0.6359c1.8138-0.5468,3.2446-1.2829,4.2929-2.2052
	c1.0478-0.9223,1.7904-1.9234,2.2286-3.0031c0.4378-1.0787,0.6569-2.1495,0.6569-3.2132c0-2.5967-1.0792-4.6057-3.2371-6.029
	c-2.1584-1.4233-5.412-2.1355-9.7592-2.1355c-0.5941,0-1.5952,0.0169-3.0026,0.0478C10.0874,4.037,8.6327,4.053,7.1317,4.053
	c-1.3138,0-2.6355-0.0159-3.9647-0.0468C1.8372,3.9753,0.7814,3.9434,0,3.9115v0.9383c0.9691,0.0319,1.7127,0.1494,2.2286,0.3526
	C2.7446,5.4056,3.0887,5.7811,3.261,6.3279c0.1713,0.5478,0.258,1.4004,0.258,2.5568v23.2715c0,1.1255-0.0867,1.9702-0.258,2.5339
	c-0.1723,0.5628-0.509,0.9383-1.009,1.1255C1.7515,36.004,1.0005,36.1285,0,36.1913v0.9383
	c0.7814-0.0628,1.8372-0.1016,3.1669-0.1175c1.3292-0.0149,2.7446-0.0229,4.2461-0.0229c1.3138,0,2.6111,0.008,3.894,0.0229
	c1.2824,0.0159,2.3462,0.0548,3.1903,0.1175v-0.9383c-1.001-0.0628-1.752-0.1873-2.252-0.3755
	c-0.5005-0.1873-0.8372-0.5628-1.0085-1.1255c-0.1723-0.5638-0.258-1.4084-0.258-2.5339V21.3652h3.0494
	c0.9691,0,1.7281,0.2898,2.2755,0.8676c0.5468,0.5797,0.9776,1.3606,1.2904,2.3467c0.3123,0.9851,0.5782,2.1345,0.7978,3.4483
	l0.8441,4.6914c0.3441,1.9403,1.0633,3.269,2.1584,3.9882c1.0947,0.7191,2.4866,1.0787,4.1754,1.0787
	c1.376,0,2.5494-0.2112,3.519-0.6325c0.9691-0.4223,1.8765-1.1186,2.7212-2.0887l-0.6569-0.5628
	C30.8404,34.8466,30.5506,35.1046,30.2851,35.2759z M12.9964,20.4269h-2.0175V8.8848c0-1.6255,0.1793-2.7043,0.5394-3.2371
	c0.3591-0.5309,1.1494-0.7978,2.3696-0.7978c2.1265,0,3.6281,0.6803,4.5041,2.0409c0.875,1.3606,1.3133,3.277,1.3133,5.7482
	c0,1.4383-0.1803,2.7441-0.5394,3.9174c-0.3601,1.1723-1.017,2.1116-1.9707,2.8148C16.241,20.0753,14.8415,20.4269,12.9964,20.4269z
	 M168.9471,32.7659V0.3935c-0.9701,0.2191-2.0339,0.3825-3.1903,0.492c-1.1584,0.1106-2.3776,0.1643-3.6595,0.1643
	c-0.9393,0-1.9084-0.0468-2.9094-0.1404v0.9851c1.1564,0,1.9473,0.3367,2.3696,1.009c0.4223,0.6723,0.6335,1.7122,0.6335,3.1196
	v26.7427c0,1.3138-0.2271,2.2052-0.6803,2.6744c-0.4542,0.4691-1.2281,0.7042-2.3228,0.7042v0.9851
	c0.6255-0.0309,1.5558-0.0707,2.7919-0.1175c1.2351-0.0468,2.4632-0.0697,3.6824-0.0697c1.2202,0,2.4244,0.0229,3.6126,0.0697
	s2.0797,0.0867,2.6744,0.1175v-0.9851c-1.0947,0-1.8686-0.2351-2.3218-0.7042C169.1732,34.9711,168.9471,34.0796,168.9471,32.7659z
	 M104.0141,32.7659v-8.0407c0.478,0.0446,0.8893,0.1294,1.1967,0.2765c0.3591,0.1723,0.7271,0.5558,1.1021,1.1494l4.645,8.3976
	c0.2814,0.4691,0.3123,0.8526,0.0936,1.1494c-0.2191,0.2978-0.6414,0.4462-1.2665,0.4462v0.9851
	c0.5628-0.0309,1.4228-0.0707,2.5802-0.1175c1.1569-0.0468,2.3143-0.0697,3.4722-0.0697c0.9383,0,1.8765,0.0229,2.8148,0.0697
	s1.642,0.0867,2.1111,0.1175v-0.9851c-0.5319-0.1883-0.9851-0.5-1.3606-0.9383c-0.375-0.4383-0.7351-0.9383-1.0787-1.502
	l-7.8741-13.1685l2.9945-3.1118c1.0005-0.9691,1.9861-1.766,2.9557-2.3925c0.9692-0.6255,1.9393-1.0319,2.9089-1.2202v-0.9383
	c-0.3755,0.0319-0.876,0.0548-1.5015,0.0707c-0.626,0.0159-1.2899,0.0319-1.9936,0.0468c-0.7042,0.0159-1.3691,0.0239-1.9941,0.0239
	c-0.7201,0-1.5952-0.0159-2.6276-0.0478c-1.0324-0.0299-1.9866-0.0618-2.8621-0.0936v0.9383
	c1.0947,0.0319,1.9781,0.2819,2.651,0.751c0.6723,0.4691,1.009,1.0956,1.009,1.8765c0,0.7819-0.5324,1.6733-1.5952,2.6744
	l-3.5658,3.4722c-0.4069,0.4383-0.8526,0.7351-1.3372,0.8915c-0.4237,0.1365-0.9241,0.2305-1.4781,0.295V0.3935
	c-0.9696,0.2191-2.0334,0.3825-3.1903,0.492c-1.1574,0.1106-2.3776,0.1643-3.6595,0.1643c-0.9383,0-1.9084-0.0468-2.9089-0.1404
	v0.9851c1.1569,0,1.9473,0.3367,2.3691,1.009c0.4223,0.6723,0.6335,1.7122,0.6335,3.1196v26.7427
	c0,1.3138-0.2271,2.2052-0.6803,2.6744c-0.4537,0.4691-1.2276,0.7042-2.3223,0.7042v0.9851
	c0.6255-0.0309,1.5558-0.0707,2.7914-0.1175s2.4632-0.0697,3.6834-0.0697c1.1883,0,2.3531,0.0229,3.4951,0.0697
	c1.1415,0.0468,2.0095,0.0867,2.6041,0.1175v-0.9851c-1.0324,0-1.7595-0.2351-2.1818-0.7042
	C104.2253,34.9711,104.0141,34.0796,104.0141,32.7659z M139.9055,33.9392c0.8133-1.1265,1.4079-2.2829,1.7829-3.4722l-0.8441-0.2809
	c-0.9701,1.5638-2.0105,2.5797-3.1201,3.0489c-1.1106,0.4691-2.135,0.7042-3.0733,0.7042c-0.9697,0-1.9234-0.3048-2.8621-0.9154
	c-0.9383-0.6096-1.7122-1.5867-2.3223-2.9323c-0.6101-1.3437-0.9149-3.0957-0.9149-5.2541c0-0.4383,0.0075-0.8606,0.0234-1.267
	c0.0123-0.325,0.0338-0.6329,0.0565-0.9383h13.151c0-3.6903-0.7824-6.3498-2.3462-7.9763
	c-1.5643-1.6255-3.7222-2.4393-6.4743-2.4393c-2.2217,0-4.1993,0.4771-5.9354,1.4303c-1.7356,0.9552-3.0962,2.4015-4.0818,4.3407
	c-0.9851,1.9393-1.4776,4.3627-1.4776,7.2721c0,2.8467,0.4612,5.1924,1.384,7.037c0.9223,1.8467,2.1968,3.2222,3.8238,4.1286
	c1.626,0.9074,3.5026,1.3606,5.6301,1.3606c1.751,0,3.2526-0.3596,4.5041-1.0787
	C138.0598,35.9881,139.0923,35.0647,139.9055,33.9392z M129.8888,15.2664c0.766-1.3765,1.6963-2.0648,2.7914-2.0648
	c0.7819,0,1.4079,0.3914,1.877,1.1733s0.8128,1.8218,1.0319,3.1196c0.2186,1.2978,0.3123,2.7142,0.2819,4.2461h-7.3426
	C128.7018,18.751,129.1531,16.5869,129.8888,15.2664z M157.0773,36.1444c-1.0947,0-1.8686-0.2351-2.3218-0.7042
	c-0.4542-0.4691-0.6803-1.3606-0.6803-2.6744V0.3935c-0.9702,0.2191-2.0339,0.3825-3.1908,0.492
	c-1.1574,0.1106-2.377,0.1643-3.6595,0.1643c-0.9383,0-1.9084-0.0468-2.9089-0.1404v0.9851c1.1569,0,1.9473,0.3367,2.3696,1.009
	c0.4223,0.6723,0.633,1.7122,0.633,3.1196v26.7427c0,1.3138-0.2271,2.2052-0.6803,2.6744
	c-0.4537,0.4691-1.2276,0.7042-2.3223,0.7042v0.9851c0.6255-0.0309,1.5558-0.0707,2.7919-0.1175
	c1.2351-0.0468,2.4627-0.0697,3.6829-0.0697c1.2197,0,2.4239,0.0229,3.6122,0.0697s2.0797,0.0867,2.6744,0.1175V36.1444z
	 M210.7271,15.2893c-0.3914,0.5797-0.5867,1.3068-0.5867,2.1813c0,0.9084,0.3048,1.6355,0.9144,2.1823
	c0.6106,0.5478,1.4622,0.8207,2.5578,0.8207c1.0936,0,1.9771-0.3675,2.6505-1.1026c0.6723-0.7341,1.009-1.6813,1.009-2.8387
	c0-0.7191-0.1494-1.4074-0.4462-2.0638c-0.2978-0.6574-0.759-1.1962-1.3835-1.6186c-0.6265-0.4223-1.4393-0.6335-2.4403-0.6335
	s-1.9084,0.1952-2.7212,0.5867c-0.8138,0.3914-1.5329,0.9303-2.1584,1.6186s-1.1255,1.4542-1.501,2.2989V12.357
	c-0.9701,0.2191-2.0249,0.3835-3.1664,0.493c-1.1425,0.1096-2.3696,0.1643-3.6834,0.1643c-0.9383,0-1.9084-0.0478-2.9094-0.1414
	v0.9851c1.1574,0,1.9473,0.3367,2.3696,1.009c0.4223,0.6733,0.6335,1.7122,0.6335,3.1206v14.7783
	c0,1.3138-0.2271,2.2052-0.6803,2.6744s-1.2281,0.7042-2.3228,0.7042v0.9851c0.6574-0.0309,1.6265-0.0707,2.9094-0.1175
	c1.2819-0.0468,2.5489-0.0697,3.7999-0.0697c1.502,0,2.9403,0.0229,4.3168,0.0697c1.3755,0.0468,2.4234,0.0867,3.1435,0.1175
	v-0.9851c-1.4712,0-2.5728-0.2659-3.3079-0.7978c-0.7351-0.5319-1.1026-1.5479-1.1026-3.0499V19.8641
	c0-0.8446,0.1882-1.7042,0.5628-2.5807c0.3755-0.8755,0.8835-1.6345,1.5249-2.276c0.6414-0.6405,1.3686-1.0239,2.1823-1.1494
	c0.4373-0.1554,0.8745-0.1713,1.3138-0.0468C211.6106,14.2186,211.1175,14.7106,210.7271,15.2893z M53.6732,35.4871
	c-0.2814,0.1574-0.5792,0.2351-0.8915,0.2351c-0.3755,0-0.6415-0.1564-0.7973-0.4691c-0.1569-0.3128-0.2346-0.8446-0.2346-1.5957
	V20.896c0-1.5957-0.1101-2.9164-0.3287-3.9642c-0.2191-1.0478-0.6883-1.9313-1.4074-2.6515
	c-0.7824-0.7809-1.752-1.3208-2.9089-1.6186c-1.1574-0.2968-2.4557-0.4452-3.894-0.4452c-1.4393,0-2.7765,0.1404-4.0116,0.4223
	c-1.2361,0.2809-2.2919,0.6723-3.1669,1.1723c-0.8138,0.5329-1.4472,1.0956-1.9004,1.6893
	c-0.4537,0.5946-0.6803,1.3457-0.6803,2.2521c0,1.001,0.2889,1.8536,0.868,2.5568c0.5787,0.7042,1.4313,1.0558,2.5573,1.0558
	c1.0005,0,1.8686-0.3118,2.6037-0.9383c0.7346-0.6255,1.1026-1.4702,1.1026-2.5339c0-0.8128-0.2425-1.5399-0.7271-2.1813
	c-0.4856-0.6405-1.1659-1.1176-2.0409-1.4313c0.4059-0.4054,0.9223-0.6952,1.5483-0.8676c0.625-0.1713,1.2505-0.258,1.8765-0.258
	c0.8755,0,1.5872,0.1723,2.1345,0.516c0.5473,0.3446,0.9542,0.8377,1.2201,1.4781c0.2654,0.6415,0.3989,1.3686,0.3989,2.1813v3.6595
	c0,0.7201-0.3053,1.3138-0.9149,1.7829c-0.6101,0.4691-1.4079,0.8845-2.393,1.2431c-0.9851,0.3606-2.0175,0.7201-3.0967,1.0797
	c-1.0792,0.3596-2.1036,0.8138-3.0728,1.3606c-0.9701,0.5478-1.7595,1.2431-2.3696,2.0877
	c-0.6101,0.8446-0.9149,1.9393-0.9149,3.284c0,1.5648,0.4691,2.8935,1.4074,3.9882c0.9383,1.0956,2.4552,1.6425,4.5509,1.6425
	c1.5324,0,2.8696-0.3138,4.0116-0.9383c1.1415-0.6255,2.1031-1.5797,2.8855-2.8626c0.0309,1.002,0.3521,1.8855,0.9617,2.6515
	c0.6101,0.767,1.8536,1.1494,3.7302,1.1494c1.0628,0,2.0245-0.1494,2.8855-0.4462c0.8596-0.2968,1.6186-0.7271,2.2755-1.2899
	l-0.4691-0.7978C54.22,35.1434,53.9546,35.3317,53.6732,35.4871z M44.9937,32.5318c-0.501,0.7201-1.009,1.2201-1.5249,1.501
	c-0.5159,0.2819-1.0717,0.4223-1.6659,0.4223c-0.8133,0-1.501-0.2888-2.0643-0.8675c-0.5628-0.5787-0.8441-1.5409-0.8441-2.8855
	c0-1.251,0.2346-2.2521,0.7037-3.0031s1.0553-1.3676,1.759-1.8536c0.7042-0.4841,1.3915-0.9383,2.0648-1.3606
	c0.6718-0.4213,1.1962-0.9452,1.5718-1.5718V32.5318z M69.5775,34.7131c-0.5633,0.4223-1.126,0.6335-1.6893,0.6335
	c-0.6883,0-1.2042-0.1952-1.5479-0.5867c-0.3446-0.3904-0.5164-1.0558-0.5164-1.9941V13.8112h5.5365v-0.9383h-5.5365V5.1785
	c-0.9696,0.5329-2.01,0.9154-3.1201,1.1494c-1.1106,0.2351-2.3223,0.3526-3.6361,0.3526v6.1924h-3.9408v0.9383h3.9408v15.858
	c0,1.6275,0.1096,2.9493,0.3287,3.9652c0.2181,1.017,0.6723,1.8696,1.3606,2.5568c0.5314,0.5319,1.1883,0.9313,1.9702,1.1962
	c0.7819,0.2659,1.6893,0.3984,2.7217,0.3984c1.751,0,3.135-0.4532,4.152-1.3606c1.016-0.9064,1.7749-2.0638,2.2755-3.4712
	l-0.7973-0.4223C70.6403,33.5637,70.1403,34.2908,69.5775,34.7131z M82.7611,37.7859c1.626,0,3.1042-0.2809,4.4339-0.8436
	c1.3287-0.5638,2.4-1.3686,3.2137-2.4164c0.8128-1.0478,1.2197-2.276,1.2197-3.6834c0-1.8765-0.5394-3.4015-1.6186-4.5748
	c-1.0792-1.1723-2.401-2.3377-3.9642-3.4951c-0.9701-0.7191-1.9004-1.3994-2.7919-2.0409c-0.8915-0.6405-1.6186-1.3138-2.1813-2.017
	c-0.5633-0.7042-0.8446-1.5249-0.8446-2.4632c0-0.9691,0.3123-1.7132,0.9383-2.2291c0.6255-0.5159,1.3915-0.7739,2.2989-0.7739
	c1.3138,0,2.385,0.3596,3.2137,1.0787c0.8287,0.7201,1.4622,1.6425,1.9004,2.769c0.4378,1.1255,0.7346,2.268,0.8915,3.4244h0.9851
	c0-2.0947,0.0154-3.777,0.0468-5.043c0.0309-1.267,0.0777-2.3387,0.1409-3.2142h-0.9851c-0.251,1.6584-0.9079,2.1275-1.9707,1.4074
	c-0.4383-0.3128-1.1494-0.6335-2.135-0.9622c-0.9851-0.3277-2.1345-0.492-3.4483-0.492c-1.4074,0-2.7292,0.242-3.9642,0.7271
	c-1.2361,0.4851-2.2286,1.2122-2.9797,2.1813c-0.7505,0.9701-1.126,2.1584-1.126,3.5658c0,1.2202,0.2819,2.3068,0.8446,3.261
	c0.5633,0.9542,1.2904,1.8297,2.1818,2.6276c0.8915,0.7968,1.8372,1.6026,2.8382,2.4164c1.376,1.0628,2.5105,2.0489,3.4015,2.9553
	c0.8915,0.9074,1.3372,2.0489,1.3372,3.4254c0,1.1883-0.3441,2.0409-1.0319,2.5568c-0.6883,0.5159-1.4393,0.7739-2.2521,0.7739
	c-1.3138,0-2.401-0.3675-3.261-1.1026c-0.8606-0.7341-1.5409-1.751-2.0409-3.0499c-0.5005-1.2968-0.8441-2.7909-1.0319-4.4802
	h-0.9856c0,2.3776-0.0159,4.286-0.0468,5.7243c-0.0314,1.4383-0.0782,2.6584-0.1404,3.6595h0.9851
	c0.1245-0.5638,0.3048-1.001,0.5394-1.3138c0.2346-0.3128,0.508-0.4223,0.8212-0.3287c0.3123,0.1255,0.6489,0.2739,1.0085,0.4462
	c0.3596,0.1723,0.743,0.3516,1.1499,0.5389c0.5314,0.2819,1.1649,0.5159,1.8999,0.7042
	C80.9857,37.6923,81.8228,37.7859,82.7611,37.7859z M179.3149,36.4253c1.6265,0.9074,3.5031,1.3606,5.6306,1.3606
	c1.751,0,3.2531-0.3596,4.5041-1.0787c1.25-0.7191,2.2829-1.6425,3.0967-2.768c0.8128-1.1265,1.4074-2.2829,1.7829-3.4722
	l-0.8447-0.2809c-0.9701,1.5638-2.01,2.5797-3.1206,3.0489c-1.1106,0.4691-2.1345,0.7042-3.0728,0.7042
	c-0.9701,0-1.9234-0.3048-2.8616-0.9154c-0.9383-0.6096-1.7132-1.5867-2.3228-2.9323c-0.6096-1.3437-0.9144-3.0957-0.9144-5.2541
	c0-0.4383,0.007-0.8606,0.0229-1.267c0.0128-0.325,0.0339-0.6329,0.0565-0.9383h13.151c0-3.6903-0.7819-6.3498-2.3457-7.9763
	c-1.5648-1.6255-3.7232-2.4393-6.4753-2.4393c-2.2212,0-4.1983,0.4771-5.9344,1.4303c-1.7361,0.9552-3.0967,2.4015-4.0818,4.3407
	c-0.9861,1.9393-1.4781,4.3627-1.4781,7.2721c0,2.8467,0.4612,5.1924,1.3835,7.037
	C176.4134,34.1434,177.6884,35.5189,179.3149,36.4253z M182.5291,15.2664c0.766-1.3765,1.6963-2.0648,2.7919-2.0648
	c0.7809,0,1.4074,0.3914,1.8765,1.1733c0.4691,0.7819,0.8128,1.8218,1.0319,3.1196c0.2181,1.2978,0.3128,2.7142,0.2819,4.2461
	h-7.343C181.3422,18.751,181.7934,16.5869,182.5291,15.2664z M132.862,64.8663l2.6774-9.4674
	c-0.2859,0.0996-0.5996,0.1713-0.9427,0.2141c-0.3427,0.0428-0.6853,0.0717-1.0279,0.0857l-0.3318,1.3102
	c-0.028-0.3376-0.1058-0.6287-0.2359-0.8709c-0.2645-0.493-0.6459-0.7391-1.146-0.7391c-0.6425,0-1.2744,0.2002-1.8955,0.5996
	c-0.621,0.4004-1.1962,0.9283-1.7241,1.5847c-0.5284,0.6574-0.996,1.3855-1.4029,2.1853c-0.4069,0.7998-0.7246,1.6026-0.9532,2.4094
	s-0.3426,1.5528-0.3426,2.2381c0,0.757,0.1678,1.3785,0.5035,1.8636c0.3352,0.4851,0.8387,0.7281,1.51,0.7281
	c0.8566,0,1.6953-0.4711,2.5165-1.4134c0.5987-0.6869,1.1953-1.735,1.7901-3.1355l-0.3872,1.5289
	c-0.1145,0.4432-0.2142,0.8815-0.2998,1.3168c-0.0857,0.4363-0.0359,0.8177,0.1499,1.1464c0.2286,0.3715,0.621,0.5568,1.1783,0.5568
	c0.4138,0,0.8491-0.1574,1.3063-0.4711c0.4567-0.3138,0.8427-0.8994,1.1569-1.756l0.5354-1.5638h-0.4069l-0.257,0.7919
	c-0.2714,0.8287-0.5428,1.4004-0.8143,1.7142c-0.2714,0.3138-0.5498,0.4711-0.8352,0.4711c-0.243,0-0.3895-0.0857-0.4393-0.257
	c-0.0503-0.1713-0.0503-0.3606,0-0.5677C132.7938,65.1621,132.8331,64.9948,132.862,64.8663z M131.9621,61.3752
	c-0.3855,0.9423-0.8068,1.7849-1.2635,2.527c-0.4572,0.743-0.9069,1.3317-1.3496,1.767c-0.4427,0.4363-0.8352,0.6534-1.1778,0.6534
	c-0.2286,0-0.4104-0.1215-0.5463-0.3645c-0.1355-0.242-0.2032-0.6703-0.2032-1.2849c0-0.9423,0.1355-1.9313,0.4069-2.9662
	c0.2709-1.0349,0.628-1.9991,1.0708-2.8915c0.4427-0.8925,0.9173-1.6176,1.4243-2.1744c0.507-0.5568,0.996-0.8357,1.4672-0.8357
	c0.4572,0,0.7854,0.2331,0.9856,0.6962c0.1886,0.4384,0.2325,1.0181,0.1541,1.7177l-0.2012,0.7944
	C132.5202,59.8222,132.274,60.613,131.9621,61.3752z M126.9395,52.7644c0.2356-0.257,0.4676-0.4422,0.6962-0.5568
	c0.2281-0.1145,0.4422-0.1932,0.6425-0.2361l0.1071-0.4283c-0.2286,0.0149-0.4642,0.0289-0.7067,0.0428
	c-0.243,0.0149-0.5498,0.0219-0.9213,0.0219c-0.243,0-0.503-0.004-0.7814-0.011c-0.2789-0.007-0.5573-0.0139-0.8357-0.0219
	c-0.2784-0.007-0.5533-0.0169-0.8247-0.0319l-0.1071,0.4283c0.6001,0.0149,1.0354,0.1036,1.3068,0.2679
	c0.2709,0.1643,0.382,0.4602,0.3322,0.8885c-0.0503,0.4293-0.2824,1.0578-0.6962,1.8855l-4.1867,8.4973l-1.5321-9.7394
	c-0.1145-0.743-0.0573-1.2211,0.1713-1.4353c0.2281-0.2141,0.7137-0.3357,1.4562-0.3646l0.0857-0.4283
	c-0.2998,0.0149-0.6927,0.0289-1.1778,0.0428c-0.4856,0.0149-1.007,0.0219-1.5638,0.0219c-0.3571,0-0.6997-0.007-1.0279-0.0219
	c-0.3287-0.0139-0.621-0.0279-0.878-0.0428l-0.0862,0.4283c0.2002,0.0149,0.389,0.1106,0.5677,0.2898
	c0.1783,0.1783,0.3108,0.5389,0.3964,1.0817l0.4803,3.0514l-4.4879,7.5862l-1.1972-10.2092
	c-0.0857-0.7142-0.0289-1.1853,0.1713-1.4144c0.1997-0.2281,0.5423-0.3566,1.0279-0.3855l0.0857-0.4283
	c-0.257,0.0149-0.5887,0.0289-0.9955,0.0428c-0.4074,0.0149-0.8461,0.0219-1.3173,0.0219c-0.4004,0-0.7819-0.007-1.146-0.0219
	c-0.3645-0.0139-0.6893-0.0279-0.9746-0.0428l-0.0857,0.4283c0.2281,0.0149,0.4637,0.1076,0.7067,0.2789
	c0.2425,0.1713,0.3994,0.5349,0.4711,1.0927l1.6923,13.4725h0.3426l5.8105-9.7601l1.5363,9.7601h0.3426l6.4041-12.9804
	C126.4714,53.378,126.704,53.0214,126.9395,52.7644z M100.6266,55.3989c-0.2714,0.0996-0.5747,0.1713-0.9104,0.2141
	c-0.3357,0.0428-0.6818,0.0717-1.0389,0.0857l-0.2313,0.9157c-0.3676,1.4044-0.782,2.6962-1.2464,3.8712
	c-0.4711,1.1923-0.9567,2.2242-1.4567,3.0947c-0.5,0.8715-0.996,1.5459-1.4886,2.025c-0.4925,0.4781-0.9532,0.7171-1.3815,0.7171
	c-0.7142,0-0.871-0.5996-0.4711-1.7989l2.0349-6.1267c0.1713-0.499,0.2819-0.9771,0.3317-1.4343
	c0.0503-0.4572-0.0284-0.8317-0.2356-1.1245s-0.6245-0.4393-1.253-0.4393c-0.4427,0-0.9069,0.1424-1.392,0.4283
	c-0.4856,0.2859-0.8855,0.8785-1.1997,1.7779l-0.5354,1.5638h0.4069l0.2784-0.7929c0.3003-0.8566,0.5817-1.4353,0.8461-1.7351
	c0.2644-0.2998,0.5319-0.4492,0.8033-0.4492c0.2854,0,0.4497,0.1135,0.4925,0.3426c0.0428,0.2281-0.007,0.5568-0.1499,0.9851
	l-2.0777,6.2541c-0.3142,0.9144-0.3785,1.6813-0.1927,2.3029c0.1858,0.6205,0.75,0.9313,1.6923,0.9313
	c0.514,0,1.01-0.1355,1.4886-0.4074c0.4781-0.2709,0.9497-0.7062,1.4139-1.3058c0.4637-0.5996,0.9313-1.3925,1.4029-2.3775
	c0.2272-0.4751,0.4596-1.0045,0.6968-1.5826l-0.6754,2.6743c-0.1574,0.6295-0.254,1.1285-0.2894,1.5
	c-0.0359,0.3715,0.0035,0.6783,0.118,0.9203c0.0996,0.1863,0.2495,0.3287,0.4497,0.4293c0.1997,0.0996,0.4139,0.1494,0.6424,0.1494
	c0.4422,0,0.9064-0.1424,1.392-0.4283c0.4856-0.2859,0.8855-0.8785,1.1997-1.7779l0.5354-1.5638h-0.4069l-0.2784,0.7928
	c-0.2714,0.7859-0.5394,1.3457-0.8033,1.6813c-0.2645,0.3357-0.5533,0.503-0.8676,0.503c-0.2859,0-0.4318-0.1245-0.4388-0.3745
	c-0.0075-0.25,0.0388-0.5677,0.1389-0.9532L100.6266,55.3989z M85.7622,62.5097l-0.1285,0.3217
	c0.4995,0.0996,0.9069,0.2859,1.2211,0.5568c0.3138,0.2709,0.4711,0.5996,0.4711,0.9851c0,0.3576-0.1041,0.6245-0.3108,0.8028
	c-0.2072,0.1793-0.496,0.2679-0.8676,0.2679c-0.3571,0-0.6927-0.0568-1.0065-0.1713c-0.3143-0.1135-0.621-0.2281-0.9208-0.3426
	c-0.3003-0.1135-0.6215-0.1713-0.9642-0.1713c-0.257,0-0.5174,0.0398-0.7819,0.1175c-0.264,0.0787-0.5498,0.2002-0.8566,0.3645
	c-0.3073,0.1644-0.6678,0.3745-1.0817,0.6315l9.6601-10.1736h-0.5782c-0.3003,0.3138-0.6036,0.5249-0.9104,0.6315
	c-0.3073,0.1076-0.6464,0.1614-1.0175,0.1614c-0.4144,0-0.7709-0.0468-1.0712-0.1394c-0.2998-0.0926-0.5782-0.2002-0.8352-0.3217
	c-0.257-0.1205-0.5249-0.2281-0.8033-0.3207c-0.2784-0.0926-0.6031-0.1394-0.9746-0.1394c-0.5996,0-1.0812,0.1066-1.4458,0.3207
	c-0.3641,0.2151-0.6285,0.493-0.7924,0.8357c-0.1643,0.3426-0.246,0.7072-0.246,1.0927c0,0.5428,0.1818,0.9851,0.5458,1.3277
	c0.3641,0.3426,0.8745,0.5926,1.5314,0.75l0.1285-0.3217c-0.4856-0.0996-0.8885-0.2849-1.2102-0.5568
	c-0.3212-0.2709-0.4816-0.5996-0.4816-0.9851c0-0.3715,0.1071-0.6424,0.3212-0.8138c0.2141-0.1713,0.4995-0.257,0.8566-0.257
	c0.371,0,0.7102,0.0568,1.0175,0.1713c0.3068,0.1145,0.6106,0.2281,0.9104,0.3426c0.2998,0.1145,0.621,0.1713,0.9637,0.1713
	c0.1997,0,0.3964-0.0219,0.5892-0.0647c0.1927-0.0428,0.3964-0.1106,0.6106-0.2032c0.2141-0.0926,0.4462-0.2102,0.6957-0.3536
	c0.25-0.1424,0.5249-0.3068,0.8247-0.492L79.1654,66.708h0.5782c0.2998-0.3138,0.6031-0.5249,0.9104-0.6315
	c0.3068-0.1076,0.6459-0.1614,1.0175-0.1614c0.4139,0,0.7709,0.0468,1.0707,0.1394c0.2998,0.0936,0.5782,0.2002,0.8352,0.3217
	c0.257,0.1215,0.5249,0.2281,0.8033,0.3207c0.2784,0.0926,0.6031,0.1395,0.9746,0.1395c0.9139,0,1.5563-0.2321,1.9278-0.6962
	c0.371-0.4642,0.5568-0.9811,0.5568-1.5528c0-0.5428-0.1823-0.9881-0.5463-1.3387C86.9295,62.8991,86.4191,62.6531,85.7622,62.5097z
	 M224.3833,64.0306c-0.3143,0.8287-0.5996,1.3994-0.8571,1.7132c-0.257,0.3148-0.5284,0.4711-0.8138,0.4711
	c-0.2714,0-0.4318-0.1175-0.4821-0.3526c-0.0498-0.2361-0.0035-0.5608,0.1394-0.9751l2.2919-6.4902
	c0.1569-0.4422,0.2674-0.8954,0.3317-1.3596c0.0647-0.4642,0-0.8536-0.1927-1.1674c-0.1927-0.3138-0.5961-0.4711-1.2102-0.4711
	c-0.4427,0-0.9139,0.1424-1.4134,0.4283c-0.5,0.2859-0.9139,0.8785-1.2426,1.7779l-0.5568,1.5638h0.4069l0.3003-0.7929
	c0.2854-0.7421,0.5568-1.2919,0.8138-1.6494c0.257-0.3566,0.5493-0.5349,0.878-0.5349c0.4995,0,0.5996,0.4422,0.2998,1.3277
	l-2.2919,6.4892c-0.1858,0.515-0.3068,1-0.3641,1.4572c-0.0573,0.4572,0.0214,0.8277,0.2356,1.1136s0.6285,0.4283,1.2426,0.4283
	c0.4995,0,0.9886-0.1604,1.4672-0.4821c0.4781-0.3207,0.8676-0.8954,1.1674-1.7242l0.5568-1.5638h-0.4069L224.3833,64.0306z
	 M219.0286,55.3989c-0.4711,0-0.9174,0.1325-1.3387,0.3964s-0.8317,0.6922-1.2316,1.2849
	c-0.3999,0.5926-0.8033,1.3676-1.2102,2.3238c-0.2167,0.5098-0.4432,1.0867-0.6783,1.7216l0.6892-2.7286
	c0.114-0.4422,0.2067-0.8915,0.2784-1.3486c0.0712-0.4572,0.0319-0.8466-0.118-1.1674c-0.1499-0.3217-0.5105-0.4821-1.0817-0.4821
	c-0.4427,0-0.9069,0.1424-1.392,0.4283c-0.4856,0.2859-0.8855,0.8785-1.1997,1.7779l-0.5354,1.5638h0.4069l0.2784-0.7929
	c0.2859-0.7998,0.5573-1.3636,0.8143-1.6923c0.257-0.3277,0.5423-0.492,0.8566-0.492c0.2425,0,0.3889,0.0996,0.4393,0.2998
	c0.0498,0.2002,0.0035,0.5428-0.1395,1.0279l-2.5703,9.1885h1.8636l0.3814-1.5101c0.2831-0.9565,0.5725-1.8676,0.8716-2.7092
	c0.3496-0.9851,0.7067-1.8815,1.0708-2.6883c0.364-0.8068,0.7286-1.499,1.0927-2.0777s0.7206-1.0209,1.0707-1.3277
	c0.3496-0.3068,0.6888-0.4612,1.0175-0.4612c0.0568,0,0.1036,0.008,0.1395,0.0219c0.0354,0.0139,0.0672,0.0359,0.0961,0.0647
	c-0.2714,0.1135-0.5,0.2849-0.6853,0.514c-0.1858,0.2281-0.2784,0.514-0.2784,0.8566c0,0.243,0.0817,0.4323,0.246,0.5677
	c0.1643,0.1355,0.3675,0.2032,0.6106,0.2032c0.3994,0,0.7495-0.1504,1.0493-0.4502c0.3003-0.2998,0.4502-0.6634,0.4502-1.0917
	c0-0.3576-0.1111-0.6504-0.3322-0.8785C219.7388,55.5135,219.4285,55.3989,219.0286,55.3989z M225.3041,50.4297
	c-0.3571,0-0.6893,0.1355-0.996,0.4074c-0.3073,0.2709-0.496,0.5926-0.5672,0.9632c-0.0717,0.3715-0.004,0.6932,0.2032,0.9642
	c0.2067,0.2709,0.4891,0.4064,0.8461,0.4064c0.371,0,0.7102-0.1355,1.0175-0.4064c0.3068-0.2709,0.496-0.5926,0.5672-0.9642
	c0.0717-0.3705,0.0035-0.6922-0.2032-0.9632C225.9645,50.5651,225.6752,50.4297,225.3041,50.4297z M241.196,64.5874
	c0-0.5428-0.1813-0.9881-0.5458-1.3387c-0.3636-0.3496-0.8745-0.5956-1.5309-0.7391l-0.1285,0.3217
	c0.499,0.0996,0.9064,0.2859,1.2202,0.5568s0.4711,0.5996,0.4711,0.9851c0,0.3576-0.1036,0.6245-0.3098,0.8028
	c-0.2072,0.1793-0.497,0.2679-0.8675,0.2679c-0.3576,0-0.6933-0.0568-1.007-0.1713c-0.3147-0.1135-0.6215-0.2281-0.9213-0.3426
	c-0.2998-0.1135-0.6205-0.1713-0.9632-0.1713c-0.257,0-0.5179,0.0398-0.7819,0.1175c-0.2649,0.0787-0.5498,0.2002-0.8566,0.3645
	c-0.3078,0.1644-0.6684,0.3745-1.0817,0.6315l9.6596-10.1736h-0.5787c-0.2998,0.3138-0.6036,0.5249-0.9104,0.6315
	c-0.3068,0.1076-0.6454,0.1614-1.017,0.1614c-0.4144,0-0.7709-0.0468-1.0708-0.1394c-0.2998-0.0926-0.5787-0.2002-0.8357-0.3217
	c-0.257-0.1205-0.5249-0.2281-0.8028-0.3207c-0.2789-0.0926-0.6036-0.1394-0.9751-0.1394c-0.5996,0-1.0817,0.1066-1.4453,0.3207
	c-0.3645,0.2151-0.6285,0.493-0.7928,0.8357c-0.1644,0.3426-0.246,0.7072-0.246,1.0927c0,0.5428,0.1823,0.9851,0.5458,1.3277
	c0.3646,0.3426,0.8745,0.5926,1.5319,0.75l0.1285-0.3217c-0.4861-0.0996-0.8895-0.2849-1.2102-0.5568
	c-0.3217-0.2709-0.4821-0.5996-0.4821-0.9851c0-0.3715,0.1066-0.6424,0.3207-0.8138c0.2141-0.1713,0.5-0.257,0.8576-0.257
	c0.3705,0,0.7102,0.0568,1.017,0.1713s0.6106,0.2281,0.9104,0.3426s0.6215,0.1713,0.9642,0.1713
	c0.1992,0,0.3954-0.0219,0.5887-0.0647c0.1932-0.0428,0.3964-0.1106,0.6106-0.2032c0.2141-0.0926,0.4462-0.2102,0.6962-0.3536
	c0.249-0.1424,0.5249-0.3068,0.8247-0.492L232.522,66.708h0.5782c0.2998-0.3138,0.6026-0.5249,0.9104-0.6315
	c0.3068-0.1076,0.6454-0.1614,1.017-0.1614c0.4144,0,0.7709,0.0468,1.0717,0.1394c0.2998,0.0936,0.5777,0.2002,0.8347,0.3217
	c0.257,0.1215,0.5249,0.2281,0.8038,0.3207c0.2779,0.0926,0.6026,0.1395,0.9741,0.1395c0.9134,0,1.5558-0.2321,1.9274-0.6962
	C241.0107,65.6761,241.196,65.1591,241.196,64.5874z M249.5508,54.7346c-0.2998-0.999-0.7211-1.9273-1.264-2.7839
	c-0.5428-0.8566-1.1783-1.6923-1.9064-2.506l-0.3855,0.2779c0.8138,1.1425,1.4104,2.4025,1.7889,3.781
	c0.3775,1.3775,0.5677,2.8377,0.5677,4.3796c0,1.7998-0.3257,3.4413-0.9751,4.9264c-0.6494,1.4851-1.5638,2.8457-2.7411,4.0808
	c-1.1783,1.2351-2.5529,2.3805-4.1236,3.4373l0.2142,0.2789c1.3138-0.743,2.5349-1.5857,3.6624-2.528
	c1.1285-0.9423,2.1136-1.9562,2.9563-3.0409c0.8427-1.0857,1.4951-2.2102,1.9592-3.3736S250,59.3183,250,58.1191
	C250,56.8631,249.8506,55.7346,249.5508,54.7346z M231.5155,64.0734c-0.3143,0.8855-0.632,1.4642-0.9532,1.7351
	c-0.3212,0.2709-0.639,0.4064-0.9532,0.4064c-0.3143,0-0.5672-0.1026-0.76-0.3098c-0.1932-0.2072-0.2251-0.5468-0.0966-1.018
	l2.4881-8.7602h2.8876l0.0647-0.4283h-2.8307l1.0099-3.5559c-0.2714,0.1006-0.5747,0.1713-0.9104,0.2141
	c-0.3357,0.0428-0.6743,0.0717-1.017,0.0857l-0.9347,3.2561h-1.9354l-0.1076,0.4283h1.92l-2.2626,7.8817
	c-0.257,0.8865-0.2535,1.6066,0.011,2.1634c0.264,0.5578,0.8317,0.8357,1.7027,0.8357c0.6564,0,1.2316-0.1713,1.7241-0.514
	c0.4926-0.3426,0.896-0.9781,1.2102-1.9064l0.4497-1.3496h-0.4069L231.5155,64.0734z M208.5552,50.7942
	c-0.3855,0-0.7211,0.1494-1.007,0.4492c-0.2854,0.2998-0.4283,0.6146-0.4283,0.9423c0,0.3147,0.1001,0.5757,0.2998,0.7819
	c0.2002,0.2072,0.4572,0.3108,0.7714,0.3108c0.3855,0,0.7206-0.1464,1.0065-0.4393c0.2854-0.2928,0.4283-0.6175,0.4283-0.9741
	c0-0.2998-0.1036-0.5538-0.3103-0.761C209.1085,50.8978,208.855,50.7942,208.5552,50.7942z M199.9872,51.5432
	c-0.3426,0.0149-0.7495,0.0289-1.2206,0.0428c-0.4711,0.0149-0.9567,0.0219-1.4567,0.0219h-1.0279l-8.0535,12.6368l-1.1778-12.7015
	c-0.243,0.0149-0.5359,0.0289-0.8785,0.0428c-0.3426,0.0149-0.6783,0.0219-1.0065,0.0219c-0.3715,0-0.7251-0.007-1.0603-0.0219
	c-0.3357-0.0139-0.6175-0.0279-0.8461-0.0428l-0.1071,0.4283c0.7142,0.0289,1.1529,0.1464,1.3173,0.3536
	c0.1638,0.2072,0.1464,0.7032-0.0533,1.4891l-2.7844,10.4096c-0.2002,0.7849-0.4393,1.3168-0.7177,1.5957
	c-0.2784,0.2779-0.7894,0.4313-1.5314,0.4602l-0.1071,0.4283c0.243-0.0289,0.5498-0.0458,0.9208-0.0538
	c0.371-0.007,0.7351-0.011,1.0922-0.011c0.3715,0,0.764,0.004,1.1783,0.011c0.4139,0.008,0.7421,0.0249,0.9851,0.0538l0.1071-0.4283
	c-0.5428-0.0289-0.9423-0.1036-1.1992-0.2251c-0.257-0.1215-0.3929-0.3277-0.4069-0.6205
	c-0.0145-0.2928,0.0428-0.6962,0.1713-1.2102l3.0414-11.5023l1.4562,14.094h0.4716l8.8887-13.9227l-3.1057,11.5451
	c-0.1285,0.514-0.2714,0.8994-0.4283,1.1564c-0.1574,0.257-0.368,0.4283-0.632,0.514c-0.2645,0.0857-0.6464,0.1424-1.146,0.1713
	l-0.0857,0.4283c0.2998-0.0289,0.6992-0.0458,1.1992-0.0538c0.5-0.007,1.0284-0.011,1.5852-0.011
	c0.4995,0,0.9851,0.004,1.4567,0.011c0.4711,0.008,0.8705,0.0249,1.1992,0.0538l0.0857-0.4283
	c-0.7142-0.0289-1.1534-0.1464-1.3173-0.3536c-0.1644-0.2072-0.1464-0.7032,0.0538-1.4881l2.8273-10.6238
	c0.1424-0.5289,0.2888-0.9174,0.4388-1.1674c0.1499-0.25,0.3606-0.4213,0.632-0.514c0.2709-0.0936,0.6494-0.1464,1.135-0.1614
	L199.9872,51.5432z M178.4513,53.1608c1.1778-1.2351,2.5518-2.3815,4.1231-3.4383l-0.2141-0.2779
	c-1.3143,0.7421-2.5349,1.5847-3.6629,2.527s-2.1131,1.9572-2.9557,3.0419s-1.4961,2.2092-1.9597,3.3736
	c-0.4642,1.1634-0.6962,2.3447-0.6962,3.5449c0,1.256,0.1499,2.3845,0.4497,3.3836c0.3003,1,0.7211,1.9283,1.264,2.7849
	c0.5423,0.8566,1.1778,1.6923,1.9064,2.506l0.3855-0.2789c-0.8143-1.1425-1.4104-2.4025-1.7884-3.78
	c-0.3785-1.3785-0.5677-2.8387-0.5677-4.3806c0-1.7989,0.3247-3.4413,0.9746-4.9264
	C176.3591,55.7555,177.273,54.3959,178.4513,53.1608z M165.0969,64.0306c-0.2998,0.8566-0.5822,1.4353-0.8461,1.7351
	c-0.2645,0.2998-0.5319,0.4492-0.8033,0.4492c-0.3143,0-0.4816-0.1245-0.503-0.3745c-0.0214-0.25,0.0319-0.5677,0.1604-0.9532
	l2.0777-6.2541c0.1713-0.5279,0.2709-1.0389,0.2998-1.5319c0.0284-0.492-0.0822-0.8994-0.3317-1.2202
	c-0.25-0.3217-0.7107-0.4821-1.382-0.4821c-0.5139,0-1.01,0.1175-1.4886,0.3536c-0.4786,0.2351-0.9458,0.6205-1.4029,1.1564
	c-0.4572,0.5359-0.9208,1.2391-1.392,2.1096c-0.3522,0.6515-0.7125,1.4187-1.0808,2.3012l0.7382-2.9227
	c0.114-0.4562,0.2067-0.9134,0.2784-1.3706c0.0712-0.4562,0.0249-0.8427-0.1395-1.1564c-0.1643-0.3138-0.5319-0.4711-1.1031-0.4711
	c-0.4572,0-0.9174,0.1424-1.3815,0.4283c-0.4642,0.2859-0.8531,0.8785-1.1674,1.7779l-0.5354,1.5638h0.4069l0.2789-0.7929
	c0.2998-0.8427,0.5707-1.4174,0.8138-1.7241c0.2425-0.3068,0.5209-0.4602,0.8352-0.4602c0.2281,0,0.371,0.0747,0.4283,0.2241
	c0.0573,0.1504,0.0677,0.3287,0.0324,0.5359c-0.0359,0.2072-0.0827,0.3964-0.1394,0.5677l-2.5703,9.1885h1.8636l0.3824-1.514
	c0.3669-1.277,0.7848-2.4654,1.2561-3.5618c0.4781-1.1146,0.9746-2.0847,1.4886-2.9134c0.5139-0.8277,1.0175-1.4741,1.51-1.9383
	c0.4925-0.4642,0.9532-0.6962,1.3815-0.6962c0.3426,0,0.5498,0.1106,0.621,0.3317c0.0717,0.2221,0.0822,0.4711,0.0324,0.75
	c-0.0503,0.2789-0.1106,0.5179-0.1823,0.7171l-2.0344,6.1257c-0.1713,0.5-0.2859,0.9572-0.3426,1.3716
	c-0.0573,0.4144-0.0075,0.749,0.1499,1.006c0.257,0.4144,0.7067,0.6215,1.3491,0.6215c0.4422,0,0.9069-0.1424,1.3925-0.4283
	c0.4851-0.2859,0.885-0.8785,1.1992-1.7779l0.5354-1.5638h-0.4069L165.0969,64.0306z M204.6567,52.8391
	c0.2859-0.2928,0.4283-0.6175,0.4283-0.9741c0-0.2998-0.1036-0.5538-0.3103-0.761c-0.2072-0.2062-0.4607-0.3098-0.7605-0.3098
	c-0.3855,0-0.7211,0.1494-1.0065,0.4492c-0.2859,0.2998-0.4283,0.6146-0.4283,0.9423c0,0.3147,0.0996,0.5757,0.2998,0.7819
	c0.1997,0.2072,0.4567,0.3108,0.7709,0.3108C204.0357,53.2783,204.3708,53.1319,204.6567,52.8391z M152.5672,55.3989
	c-0.8143,0-1.5782,0.1922-2.2919,0.5777c-0.7142,0.3865-1.3641,0.9004-1.9492,1.5429c-0.5857,0.6424-1.0892,1.3457-1.51,2.1096
	c-0.4213,0.764-0.746,1.5279-0.9746,2.2919c-0.2286,0.764-0.3426,1.4532-0.3426,2.0668c0,1,0.2535,1.753,0.7605,2.26
	c0.5065,0.506,1.1958,0.76,2.0668,0.76c0.6141,0,1.1958-0.1395,1.7456-0.4173c0.5498-0.2789,1.0459-0.6395,1.4886-1.0817
	c0.4427-0.4422,0.7998-0.8994,1.0712-1.3706l-0.3426-0.1723c-0.5428,0.8008-1.1001,1.3576-1.6709,1.6714
	c-0.5712,0.3138-1.1136,0.4711-1.628,0.4711c-0.4427,0-0.7998-0.1604-1.0707-0.4821c-0.2714-0.3217-0.4069-0.8456-0.4069-1.5737
	c0-0.6998,0.1054-1.394,0.26-2.0861c0.2736-0.0934,0.5649-0.1977,0.875-0.3134c0.6141-0.2281,1.2426-0.5,1.885-0.8138
	c0.6424-0.3138,1.2386-0.6743,1.7884-1.0817c0.5498-0.4074,0.9926-0.8566,1.3282-1.3496c0.3352-0.492,0.503-1.0239,0.503-1.5957
	c0-0.4711-0.1534-0.8247-0.4602-1.0598C153.3844,55.5165,153.0094,55.3989,152.5672,55.3989z M151.989,58.6978
	c-0.3003,0.5857-0.7072,1.0847-1.2211,1.499c-0.3855,0.2998-0.9034,0.5817-1.5528,0.8456c-0.4143,0.1689-0.8701,0.3392-1.345,0.5105
	c0.039-0.1451,0.0572-0.2909,0.103-0.4358c0.3068-0.9701,0.6957-1.8596,1.1669-2.6664c0.4716-0.8068,0.9711-1.4492,1.4995-1.9273
	c0.5279-0.4781,1.014-0.7181,1.4567-0.7181c0.114,0,0.1997,0.0578,0.257,0.1713c0.0568,0.1145,0.0857,0.3795,0.0857,0.7928
	C152.4387,57.4697,152.2888,58.1121,151.989,58.6978z M146.2702,56.6201c0-0.3576-0.1111-0.6504-0.3322-0.8785
	c-0.2216-0.2281-0.5319-0.3426-0.9318-0.3426c-0.4711,0-0.9173,0.1325-1.3387,0.3964s-0.8317,0.6922-1.2316,1.2849
	c-0.3999,0.5926-0.8033,1.3676-1.2102,2.3238c-0.2167,0.5098-0.4432,1.0867-0.6782,1.7216l0.6892-2.7286
	c0.114-0.4422,0.2067-0.8915,0.2784-1.3486c0.0712-0.4572,0.0319-0.8466-0.118-1.1674c-0.1499-0.3217-0.5105-0.4821-1.0817-0.4821
	c-0.4427,0-0.9069,0.1424-1.392,0.4283c-0.4856,0.2859-0.8855,0.8785-1.1997,1.7779l-0.5354,1.5638h0.4069l0.2784-0.7929
	c0.2859-0.7998,0.5573-1.3636,0.8143-1.6923c0.257-0.3277,0.5423-0.492,0.8566-0.492c0.2425,0,0.389,0.0996,0.4393,0.2998
	c0.0498,0.2002,0.0035,0.5428-0.1395,1.0279l-2.5703,9.1885h1.8636l0.3814-1.5101c0.2831-0.9565,0.5725-1.8676,0.8716-2.7092
	c0.3496-0.9851,0.7067-1.8815,1.0707-2.6883c0.364-0.8068,0.7286-1.499,1.0927-2.0777c0.3641-0.5787,0.7206-1.0209,1.0708-1.3277
	c0.3496-0.3068,0.6888-0.4612,1.0175-0.4612c0.0568,0,0.1036,0.008,0.1394,0.0219c0.0354,0.0139,0.0672,0.0359,0.0961,0.0647
	c-0.2714,0.1135-0.5,0.2849-0.6853,0.514c-0.1858,0.2281-0.2784,0.514-0.2784,0.8566c0,0.243,0.0817,0.4323,0.246,0.5677
	c0.1643,0.1355,0.3675,0.2032,0.6106,0.2032c0.3994,0,0.7495-0.1504,1.0493-0.4502
	C146.1203,57.4119,146.2702,57.0484,146.2702,56.6201z M209.5189,55.3989c-0.2714,0.0996-0.5747,0.1713-0.9104,0.2141
	c-0.3357,0.0428-0.6818,0.0717-1.0389,0.0857l-0.2313,0.9157c-0.3676,1.4044-0.782,2.6962-1.2464,3.8712
	c-0.4711,1.1923-0.9567,2.2242-1.4567,3.0947c-0.5,0.8715-0.996,1.5459-1.4886,2.025c-0.4925,0.4781-0.9532,0.7171-1.3815,0.7171
	c-0.7142,0-0.871-0.5996-0.4711-1.7989l2.0349-6.1267c0.1713-0.499,0.2819-0.9771,0.3317-1.4343
	c0.0503-0.4572-0.0284-0.8317-0.2356-1.1245c-0.2072-0.2928-0.6245-0.4393-1.253-0.4393c-0.4427,0-0.9069,0.1424-1.392,0.4283
	c-0.4856,0.2859-0.8855,0.8785-1.1997,1.7779l-0.5354,1.5638h0.4069l0.2784-0.7929c0.3003-0.8566,0.5817-1.4353,0.8461-1.7351
	c0.2644-0.2998,0.5319-0.4492,0.8033-0.4492c0.2854,0,0.4497,0.1135,0.4925,0.3426c0.0428,0.2281-0.007,0.5568-0.1499,0.9851
	l-2.0777,6.2541c-0.3142,0.9144-0.3785,1.6813-0.1927,2.3029c0.1858,0.6205,0.75,0.9313,1.6923,0.9313
	c0.514,0,1.01-0.1355,1.4886-0.4074c0.4781-0.2709,0.9497-0.7062,1.4139-1.3058c0.4637-0.5996,0.9313-1.3925,1.4029-2.3775
	c0.2272-0.4751,0.4596-1.0045,0.6968-1.5826l-0.6754,2.6743c-0.1574,0.6295-0.254,1.1285-0.2894,1.5
	c-0.0359,0.3715,0.0035,0.6783,0.118,0.9203c0.0996,0.1863,0.2495,0.3287,0.4497,0.4293c0.1997,0.0996,0.4138,0.1494,0.6424,0.1494
	c0.4422,0,0.9064-0.1424,1.392-0.4283s0.8855-0.8785,1.1997-1.7779l0.5354-1.5638h-0.4069l-0.2784,0.7928
	c-0.2714,0.7859-0.5394,1.3457-0.8033,1.6813c-0.2645,0.3357-0.5533,0.503-0.8676,0.503c-0.2859,0-0.4318-0.1245-0.4388-0.3745
	c-0.0075-0.25,0.0388-0.5677,0.1389-0.9532L209.5189,55.3989z"/>
</svg>
