<?xml version="1.0" encoding="iso-8859-1"?>
<!-- Generator: Adobe Illustrator 25.2.3, SVG Export Plug-In . SVG Version: 6.00 Build 0)  -->
<svg version="1.1" id="Layer_1" xmlns="http://www.w3.org/2000/svg" xmlns:xlink="http://www.w3.org/1999/xlink" x="0px" y="0px"
	 viewBox="0 0 190 100" style="enable-background:new 0 0 190 100;" xml:space="preserve">
<g id="Group_99" transform="translate(-712.999 -1243.559)">
	<g id="google-2015" transform="translate(713.002 1243.559)">
		<path id="Path_566" d="M24.6723,1h1.6596c5.8153,0.11,11.3653,2.4534,15.4996,6.5445c-1.5048,1.5338-3.0371,3.0053-4.5087,4.5391
			c-6.7935-6.4239-17.5083-6.1244-23.9322,0.6691c-2.4771,2.6196-4.0532,5.9615-4.4988,9.5391
			c-0.6723,4.82,0.7011,9.7015,3.7881,13.4638c3.0366,3.641,7.4733,5.8255,12.2107,6.012c4.4514,0.3399,8.8466-1.166,12.1543-4.1643
			c2.3721-2.28,3.812-5.3603,4.0399-8.6426c-5.1974,0-10.3948,0.0318-15.5937,0v-6.4505h21.8821
			c1.1272,6.9193-0.5006,14.7168-5.7617,19.6639c-3.5996,3.4915-8.311,5.6081-13.3119,5.9802
			c-4.835,0.4957-9.708-0.4615-13.9963-2.7492c-5.1456-2.7561-9.1159-7.2863-11.1733-12.749
			C1.263,27.6238,1.2078,22.098,2.974,17.0292c1.6318-4.6023,4.6375-8.5924,8.6108-11.4308C15.4153,2.8409,19.9588,1.2446,24.6723,1
			z"/>
		<path id="Path_567" d="M150.2307,2.6278h6.7008v44.7105c-2.2225,0-4.4768,0.0318-6.7008-0.0318
			c0.0318-14.8731,0-29.7766,0-44.6816V2.6278z"/>
		<path id="Path_568" d="M62.2783,18.1202c4.1903-0.8106,8.5301,0.1159,12.0241,2.5669c3.1242,2.2377,5.2484,5.6094,5.918,9.3935
			c1.689,8.1897-3.5809,16.1979-11.7706,17.8869c-1.3595,0.2804-2.7511,0.3725-4.1356,0.2737
			c-4.5165-0.2416-8.6922-2.4771-11.3976-6.1018c-2.9507-4.1238-3.7208-9.4216-2.0662-14.2148
			C52.5991,22.8255,56.9725,19.0734,62.2783,18.1202 M63.2174,24.07c-1.7187,0.4435-3.2532,1.4189-4.3842,2.7868
			c-3.0496,3.8425-2.8369,9.3361,0.5006,12.9313c1.9472,1.9582,4.7377,2.8251,7.4517,2.3151
			c2.4872-0.4826,4.6257-2.0578,5.8239-4.2902c2.1177-3.8635,1.4283-8.6614-1.6915-11.7723
			c-2.0793-1.8967-4.9667-2.6335-7.7006-1.9649V24.07z"/>
		<path id="Path_569" d="M95.4669,18.1289c8.2316-1.7115,16.292,3.5741,18.0034,11.8057c0.933,4.4877-0.2056,9.157-3.0999,12.7113
			c-5.4466,6.5915-15.2053,7.5197-21.7969,2.0732c-0.9197-0.7599-1.7485-1.6236-2.4698-2.5738
			c-3.0003-4.2264-3.7373-9.6555-1.9722-14.5287C85.9594,22.6671,90.2729,19.0567,95.4669,18.1289 M96.4059,24.0787
			c-1.71,0.4422-3.2414,1.4025-4.3842,2.7492c-3.0159,3.7843-2.8706,9.1901,0.3444,12.8069
			c1.9597,2.0711,4.8381,3.0033,7.6399,2.4743c2.4782-0.503,4.6088-2.0725,5.8239-4.2902c2.0995-3.888,1.3854-8.6945-1.7537-11.8042
			c-2.0717-1.887-4.9487-2.6155-7.6688-1.9418L96.4059,24.0787z"/>
		<path id="Path_570" d="M123.6156,19.9434c3.6625-2.3889,8.2911-2.743,12.2744-0.9391c1.1903,0.5954,2.2703,1.3896,3.1934,2.3484
			c0.0318-0.845,0-1.7219,0.0318-2.6045c2.0981,0.0318,4.1961,0,6.3246,0.0318v27.6207c-0.0318,4.1643-1.0953,8.5789-4.1021,11.6161
			c-3.4658,3.1943-8.2368,4.5638-12.8691,3.694c-4.9062-0.8466-9.0398-4.1413-10.9592-8.7352
			c1.881-0.9087,3.8517-1.6278,5.7878-2.4743c1.0387,2.6563,3.3253,4.6259,6.1061,5.2596c2.8704,0.646,5.8657-0.3123,7.828-2.5047
			c1.9418-2.3802,1.9418-5.6431,1.8477-8.5485c-1.3827,1.4909-3.1479,2.5739-5.1034,3.1312
			c-4.4415,1.0649-9.1219-0.1435-12.4929-3.2252c-6.3776-5.639-6.9763-15.3804-1.3372-21.758
			c1.0054-1.1371,2.1732-2.1194,3.4657-2.9152 M130.0922,23.9485c-1.926,0.3358-3.6698,1.3456-4.9196,2.849
			c-2.9514,3.6689-2.9381,8.9012,0.0318,12.5551c1.7327,2.0591,4.3661,3.136,7.0452,2.8809
			c2.5121-0.2995,4.7321-1.7756,5.9802-3.9762c2.1086-3.7898,1.6862-8.4834-1.0649-11.836
			c-1.7716-1.9942-4.4487-2.9302-7.077-2.4743L130.0922,23.9485z"/>
		<path id="Path_571" d="M164.9779,21.5393c3.8859-3.5533,9.425-4.6513,14.3725-2.849c4.5709,1.7219,7.4836,6.0772,8.9552,10.5525
			c-6.8006,2.8186-13.5578,5.604-20.3527,8.4226c0.8711,1.8561,2.4158,3.3113,4.3206,4.0703
			c2.7795,1.0249,5.8886,0.5776,8.2664-1.1894c0.8738-0.7229,1.6517-1.5544,2.3151-2.4743
			c1.7219,1.1576,3.4437,2.2862,5.1656,3.4437c-4.7465,7.0111-14.278,8.8469-21.2891,4.1003
			c-1.0761-0.7286-2.0553-1.591-2.9138-2.5666c-5.1979-6.4026-4.6974-15.7024,1.1575-21.5102 M168.3247,27.3271
			c-1.0272,1.5568-1.5417,3.3958-1.4715,5.2596c4.5406-1.8791,9.0805-3.7683,13.6201-5.6677
			c-0.8491-1.7163-2.5119-2.8837-4.4147-3.0993c-3.0371-0.4061-6.0395,0.9582-7.731,3.5132L168.3247,27.3271z"/>
	</g>
	<path id="Union_1" d="M877.6614,1338.7145l-8.7071,3.8445l1.0725-9.5585l-6.2993-6.6993l9.2836-2.0836l4.6503-8.1202l4.6531,8.1217
		l9.2822,2.0836l-6.3035,6.6979l1.0767,9.5585L877.6614,1338.7145z"/>
	<path id="Union_2" d="M842.9348,1338.7145l-8.7071,3.8445l1.0725-9.5585l-6.2993-6.6993l9.2836-2.0836l4.6503-8.1202l4.6531,8.1217
		l9.2822,2.0836l-6.3035,6.6979l1.0767,9.5585L842.9348,1338.7145z"/>
	<path id="Union_3" d="M808.2082,1338.7145l-8.707,3.8445l1.0724-9.5585l-6.2993-6.6993l9.2836-2.0836l4.6503-8.1202l4.6531,8.1217
		l9.2822,2.0836l-6.3035,6.6979l1.0768,9.5585L808.2082,1338.7145z"/>
	<path id="Union_4" d="M773.4816,1338.7145l-8.7071,3.8445l1.0724-9.5585l-6.2993-6.6993l9.2836-2.0836l4.6503-8.1202l4.6531,8.1217
		l9.2822,2.0836l-6.3035,6.6979l1.0767,9.5585L773.4816,1338.7145z"/>
	<path id="Union_5" d="M738.755,1338.7145l-8.7071,3.8445l1.0725-9.5585l-6.2993-6.6993l9.2836-2.0836l4.6503-8.1202l4.6531,8.1217
		l9.2822,2.0836l-6.3035,6.6979l1.0767,9.5585L738.755,1338.7145z"/>
</g>
</svg>
