<?xml version="1.0" encoding="iso-8859-1"?>
<!-- Generator: Adobe Illustrator 25.2.3, SVG Export Plug-In . SVG Version: 6.00 Build 0)  -->
<svg version="1.1" id="Layer_1" xmlns="http://www.w3.org/2000/svg" xmlns:xlink="http://www.w3.org/1999/xlink" x="0px" y="0px"
	 viewBox="0 0 115 100" style="enable-background:new 0 0 115 100;" xml:space="preserve">
<g id="Tripadvisor_Logo_stacked" transform="translate(0 -0.01)">
	<path id="Path_550" d="M29.9066,51.2036c5.3855,0.0007,9.7518-4.3644,9.7526-9.7498c0.0008-5.3855-4.3644-9.7518-9.7498-9.7526
		c-5.3854-0.0008-9.7518,4.3644-9.7526,9.7498c0,0.0009,0,0.0018,0,0.0027C20.1575,46.8382,24.5222,51.2029,29.9066,51.2036z"/>
	<circle id="Ellipse_45" cx="84.8783" cy="41.4537" r="9.7512"/>
	<path id="Path_551" d="M2.4221,41.4537C2.4211,56.6322,14.725,68.9376,29.9035,68.9386c6.9289,0.0005,13.6022-2.6163,18.684-7.3263
		l8.8117,9.5872l8.8117-9.5817c11.0201,10.4419,28.4186,9.9732,38.8606-1.0469c10.442-11.0202,9.9733-28.4186-1.0469-38.8606
		c-0.2042-0.1935-0.4113-0.3838-0.6214-0.5709l8.9934-9.7851H92.4658c-21.1437-14.3877-48.9339-14.3877-70.0777,0H2.3936
		l8.9934,9.7851C5.6678,26.3436,2.4121,33.721,2.4221,41.4537z M103.4805,41.4537c0,10.273-8.3279,18.6009-18.6009,18.6009
		s-18.6009-8.3279-18.6009-18.6009s8.3279-18.6009,18.6009-18.6009h0C95.1526,22.8528,103.4805,31.1807,103.4805,41.4537z
		 M57.3883,9.5553c7.0895-0.0086,14.1096,1.3951,20.6506,4.1293c-11.74,4.4926-20.6412,14.9949-20.6412,27.2323
		c0-12.2402-8.9039-22.7438-20.6452-27.2337C43.289,10.9511,50.304,9.5479,57.3883,9.5553z M29.9025,22.8528
		c10.273,0,18.6009,8.3279,18.6009,18.6009s-8.3279,18.6009-18.6009,18.6009s-18.6009-8.3279-18.6009-18.6009v0
		C11.3016,31.1807,19.6295,22.8528,29.9025,22.8528c0.0013,0,0.0027,0,0.0041,0L29.9025,22.8528z"/>
	<path id="Path_552" d="M111.4463,94.0056c-0.6207,0-1.1238,0.5032-1.1239,1.1238c0,0.6207,0.5032,1.1238,1.1238,1.1239
		c0.6207,0,1.1239-0.5032,1.1239-1.1238c0-0.0001,0-0.0001,0-0.0001C112.5701,94.5088,112.067,94.0056,111.4463,94.0056z
		 M111.4463,96.0771c-0.5241,0-0.949-0.4249-0.949-0.949c0.0001-0.5241,0.4249-0.949,0.949-0.949
		c0.5241,0.0001,0.949,0.4249,0.949,0.949c0.0015,0.5241-0.4222,0.9501-0.9463,0.9516c-0.0008,0-0.0017,0-0.0026,0V96.0771z"/>
	<path id="Path_553" d="M111.811,94.9382c0.0042-0.1767-0.1355-0.3233-0.3122-0.3275c-0.0152-0.0004-0.0305,0.0003-0.0457,0.0022
		h-0.3593v1.0222h0.1762v-0.3714h0.1911l0.1858,0.3714h0.1911l-0.2047-0.4067C111.7479,95.1788,111.819,95.0627,111.811,94.9382z
		 M111.4449,95.1077H111.27v-0.3389h0.1749c0.1179,0,0.1898,0.0597,0.1898,0.1695
		C111.6347,95.048,111.5629,95.1077,111.4449,95.1077z"/>
	<path id="Path_554" d="M15.2682,86.4966v-1.9358h-2.9648v11.523h2.9689V89.17c0-1.2512,0.8025-1.8653,2.0538-1.8653h1.6268v-2.7439
		h-1.395C16.403,84.4995,15.3999,85.3476,15.2682,86.4966z"/>
	<path id="Path_555" d="M21.7252,80.0084c-0.9973-0.0067-1.8111,0.7963-1.8179,1.7935c-0.0067,0.9973,0.7963,1.8111,1.7935,1.8179
		c0.9972,0.0067,1.8111-0.7962,1.8179-1.7934c0.0195-0.9844-0.7627-1.7982-1.7471-1.8176
		C21.7562,80.0084,21.7407,80.0083,21.7252,80.0084z"/>
	<rect id="Rectangle_142" x="20.2448" y="84.5607" width="2.9607" height="11.5149"/>
	<path id="Path_556" d="M31.3572,84.3669c-1.2619-0.0064-2.4906,0.4044-3.4949,1.1686V84.558h-2.9526v14.8986h2.9607v-4.3543
		c1.0023,0.7632,2.2283,1.1749,3.4881,1.1713c3.2872,0,5.952-2.6648,5.952-5.952c0-3.2872-2.6648-5.952-5.952-5.952L31.3572,84.3669
		z M31.0955,93.5515c-1.7864,0-3.2346-1.4482-3.2346-3.2346s1.4482-3.2346,3.2346-3.2346c1.7864-0.0001,3.2346,1.4482,3.2346,3.2346
		c0,0.0004,0,0.0009,0,0.0013c0,1.7864-1.4482,3.2346-3.2346,3.2346l0,0L31.0955,93.5515z"/>
	<path id="Path_557" d="M88.7703,89.3083l-1.7271-0.4744c-1.1361-0.2956-1.5793-0.6453-1.5793-1.2459
		c0-0.6005,0.6222-0.9937,1.5129-0.9937c0.765-0.0702,1.442,0.4929,1.5123,1.2579c0.0002,0.0023,0.0005,0.0046,0.0007,0.007v0.0664
		h2.7289v-0.0664c0-2.0904-1.7041-3.4936-4.2419-3.4936c-2.5134,0-4.3381,1.4031-4.3381,3.3363
		c0.044,1.5596,1.1942,2.866,2.7357,3.1071l1.6553,0.4487c1.2567,0.3484,1.723,0.7348,1.723,1.4261
		c0,0.7294-0.6778,1.2201-1.6797,1.2201c-0.8867,0.0782-1.669-0.5773-1.7473-1.464c-0.0054-0.0613-0.0073-0.1229-0.0056-0.1844
		V92.189h-2.8943v0.0664c0,2.3629,1.8979,4.0128,4.6255,4.0128c2.6245,0,4.5292-1.6119,4.5292-3.8325
		C91.5793,91.3512,91.0926,89.9264,88.7703,89.3083z"/>
	<path id="Path_558" d="M47.8175,85.5355c-1.0043-0.7641-2.2329-1.1749-3.4949-1.1686c-3.2872,0-5.952,2.6648-5.952,5.952
		c0,3.2872,2.6648,5.952,5.952,5.952l0,0c1.2618,0.0058,2.4903-0.4049,3.4949-1.1686v0.9747h2.9607V84.554h-2.9607V85.5355z
		 M47.8175,90.3195c0,1.7864-1.4482,3.2346-3.2346,3.2346c-1.7864,0.0001-3.2346-1.4482-3.2346-3.2346s1.4482-3.2346,3.2346-3.2346
		c0.0005,0,0.0009,0,0.0014,0C46.3701,87.0857,47.8175,88.5336,47.8175,90.3195z"/>
	<path id="Path_559" d="M61.4634,85.5369c-1.0038-0.764-2.2321-1.1748-3.4935-1.1686c-3.2872,0-5.952,2.6648-5.952,5.952
		s2.6648,5.952,5.952,5.952c1.2614,0.0055,2.4893-0.4053,3.4935-1.1686v0.9747h2.9608V80.4626h-2.9608V85.5369z M58.2301,93.5529
		c-1.7864,0.0007-3.2351-1.4468-3.2359-3.2332s1.4468-3.2351,3.2332-3.2359c1.7864-0.0007,3.2351,1.4468,3.2359,3.2332
		c0,0.0008,0,0.0017,0,0.0026C61.4626,92.1049,60.0155,93.5521,58.2301,93.5529z"/>
	<rect id="Rectangle_143" x="78.1732" y="84.5607" width="2.9607" height="11.5149"/>
	<path id="Path_560" d="M79.6522,80.0084c-0.9973-0.0067-1.8111,0.7963-1.8178,1.7935c-0.0067,0.9973,0.7963,1.8111,1.7935,1.8179
		c0.9972,0.0067,1.8111-0.7962,1.8178-1.7934c0.0195-0.9844-0.7627-1.7982-1.747-1.8176
		C79.6832,80.0084,79.6677,80.0083,79.6522,80.0084z"/>
	<path id="Path_561" d="M98.4266,84.3669c-3.2868,0-5.9513,2.6646-5.9513,5.9513c0.0001,3.2868,2.6646,5.9513,5.9513,5.9513
		c3.2869-0.0001,5.9513-2.6646,5.9513-5.9513C104.3779,87.0314,101.7135,84.3669,98.4266,84.3669L98.4266,84.3669z M98.4266,93.5515
		c-1.7864,0.0007-3.2351-1.4468-3.2359-3.2332c-0.0007-1.7864,1.4468-3.2351,3.2332-3.2359
		c1.7864-0.0007,3.2351,1.4468,3.2359,3.2332c0,0.0008,0,0.0017,0,0.0026C101.6591,92.1035,100.212,93.5507,98.4266,93.5515z"/>
	<path id="Path_562" d="M13.7513,80.4626H2.3936v2.6421h4.2025v12.9736h2.9513V83.1047h4.2025L13.7513,80.4626z"/>
	<path id="Path_563" d="M71.1902,92.9224l-2.6327-8.3617h-3.1099l3.9504,11.5163h3.564l3.9734-11.5163h-3.1099L71.1902,92.9224z"/>
	<path id="Path_564" d="M112.3911,87.3073v-2.7466h-1.3868c-1.1552-0.062-2.1587,0.7865-2.2897,1.9358v-1.9358h-2.9661v11.523
		h2.9676V89.17c0-1.2512,0.8025-1.8653,2.0538-1.8653L112.3911,87.3073z"/>
</g>
</svg>
