<?xml version="1.0" encoding="iso-8859-1"?>
<!-- Generator: Adobe Illustrator 25.2.3, SVG Export Plug-In . SVG Version: 6.00 Build 0)  -->
<svg version="1.1" id="Layer_1" xmlns="http://www.w3.org/2000/svg" xmlns:xlink="http://www.w3.org/1999/xlink" x="0px" y="0px"
	 viewBox="0 0 32 32" fill="#F0ECDF" style="enable-background:new 0 0 32 32;" xml:space="preserve">
<path d="M27.3149,4.6714C21.0526-1.5712,10.9152-1.5551,4.6726,4.7073c-5.9604,5.9794-6.2535,15.5595-0.6699,21.8921l0.1642,0.133
	c-0.6508,1.5754-1.8104,2.8875-3.2941,3.7267c-0.3079,0.1517-0.4345,0.5244-0.2828,0.8323
	c0.0895,0.1816,0.2618,0.3082,0.4618,0.3394c2.4266,0.3205,4.8801-0.3485,6.8082-1.8564l0.0337,0.0263
	c7.6292,4.4703,17.4377,1.9096,21.908-5.7195C33.4831,17.7985,32.4612,9.8231,27.3149,4.6714z M14.5278,11.3472
	c0.1401-0.5337,0.6846-0.853,1.2217-0.7119c2.6802,0.7061,4.853,2.7915,5.6704,5.4419c0.1621,0.5278-0.1338,1.0869-0.6611,1.25
	c-0.0986,0.0303-0.1973,0.0449-0.2949,0.0449c-0.4277,0-0.8232-0.2764-0.9561-0.7061c-0.6143-1.9951-2.25-3.5649-4.2681-4.0972
	C14.7056,12.4282,14.3867,11.8813,14.5278,11.3472z M21.398,22.7126c-0.0385,0.0457-0.0807,0.0882-0.126,0.1271v-0.0008
	c-0.353,0.3596-0.725,0.6921-1.0583,1.0674c-0.4513,0.5031-1.1185,0.7562-1.7899,0.679c-0.996-0.0814-1.965-0.3643-2.8483-0.8317
	c-1.9811-0.9601-3.7348-2.3317-5.1439-4.0232c-1.0709-1.2381-1.9197-2.652-2.5091-4.1791c-0.3078-0.7366-0.451-1.5316-0.4196-2.3293
	c0.028-0.4855,0.2397-0.9423,0.592-1.2776c0.399-0.3793,0.7718-0.7718,1.1642-1.1577c0.4033-0.4594,1.1025-0.5048,1.5619-0.1015
	c0.036,0.0316,0.0699,0.0655,0.1016,0.1015c0.3194,0.3128,0.6256,0.6256,0.9385,0.9385c0.3128,0.3128,0.6125,0.6059,0.9113,0.9114
	c0.4705,0.3917,0.5344,1.0906,0.1426,1.561c-0.0431,0.0518-0.0908,0.0995-0.1426,0.1426c-0.3793,0.3859-0.7586,0.7718-1.1495,1.1445
	c-0.0934,0.0729-0.119,0.2035-0.0599,0.3063c0.2628,0.6022,0.6124,1.1627,1.0378,1.6635c0.8154,1.0366,1.7983,1.9296,2.9081,2.6422
	c0.2397,0.1527,0.5058,0.2595,0.7587,0.399c0.1036,0.0718,0.2458,0.0461,0.3177-0.0574c0.0005-0.0009,0.0012-0.0017,0.0017-0.0025
	c0.3793-0.3925,0.7718-0.7784,1.1577-1.1643c0.395-0.4575,1.0861-0.5082,1.5436-0.1132c0.0405,0.035,0.0783,0.0728,0.1132,0.1132
	c0.6257,0.6191,1.2448,1.2382,1.863,1.863C21.7372,21.5334,21.797,22.2399,21.398,22.7126z M23.9609,17.1826
	c-0.0479,0.0068-0.0947,0.0098-0.1406,0.0098c-0.4912,0-0.9189-0.3608-0.9893-0.8604c-0.5352-3.8018-3.5771-6.7285-7.3975-7.1162
	c-0.5493-0.0562-0.9497-0.5469-0.894-1.0962c0.0562-0.5493,0.5479-0.9521,1.0962-0.894c4.7383,0.4819,8.5117,4.1113,9.1758,8.8271
	C24.8887,16.5996,24.5078,17.1055,23.9609,17.1826z"/>
</svg>
