<?xml version="1.0" encoding="iso-8859-1"?>
<!-- Generator: Adobe Illustrator 25.2.3, SVG Export Plug-In . SVG Version: 6.00 Build 0)  -->
<svg version="1.1" id="Layer_1" fill="#034574" xmlns="http://www.w3.org/2000/svg" xmlns:xlink="http://www.w3.org/1999/xlink" x="0px" y="0px"
	 viewBox="0 0 32 32" style="enable-background:new 0 0 32 32;" xml:space="preserve">
<path d="M16,0C7.1635,0,0,7.1635,0,16s7.1635,16,16,16s16-7.1635,16-16S24.8365,0,16,0z M16,24.4169
	c-4.305,0-7.7949-2.0204-7.7949-4.5128c0-1.8004,1.8256-3.35,4.4596-4.0742c-1.2092-0.9777-1.998-2.4548-1.998-4.1309
	c0-2.9456,2.3878-5.3334,5.3333-5.3334s5.3333,2.3878,5.3333,5.3334c0,1.6761-0.7889,3.1532-1.998,4.1309
	c2.634,0.7242,4.4596,2.2738,4.4596,4.0742C23.7949,22.3964,20.305,24.4169,16,24.4169z"/>
</svg>
